<svg width="128" height="128" viewBox="0 0 128 128" fill="none" xmlns="http://www.w3.org/2000/svg">
<g clip-path="url(#clip0_250_30365)">
<path d="M62.1839 118.772C61.819 118.024 61.9005 119.004 61.9796 119.986C62.224 119.672 62.4661 119.357 62.1839 118.772Z" fill="#73BDE2"/>
<path d="M63.1529 118.308C63.0024 117.947 62.7194 117.657 62.3614 117.498C62.2196 117.45 62.0696 117.43 61.9202 117.44C61.7708 117.45 61.6246 117.489 61.4906 117.556C61.3567 117.623 61.2376 117.716 61.1397 117.829C61.0423 117.942 60.9681 118.073 60.9219 118.215C60.7355 118.84 60.8686 119.547 60.9209 120.185C60.9606 120.39 61.0604 120.579 61.2079 120.728C61.355 120.878 61.5431 120.98 61.7486 121.023C61.9547 121.068 62.1701 121.052 62.3676 120.977C62.5649 120.902 62.7362 120.772 62.8609 120.602C63.06 120.364 63.2098 120.089 63.3028 119.793C63.4327 119.296 63.3794 118.769 63.1529 118.308C63.0275 118.053 62.8072 117.858 62.5391 117.764C62.2714 117.67 61.9769 117.684 61.7194 117.803C61.4659 117.93 61.2711 118.15 61.1764 118.417C61.0818 118.683 61.0945 118.976 61.2115 119.233C61.2616 119.352 61.2643 119.348 61.2131 119.214C61.227 119.262 61.2367 119.311 61.2417 119.36C61.2391 119.188 61.2344 119.157 61.2276 119.271C61.2739 119.09 61.2789 119.057 61.2363 119.166C61.1718 119.335 61.3872 118.94 61.2354 119.178C61.1914 119.244 61.1403 119.307 61.092 119.369L63.0318 119.789L62.9967 119.346C63.0024 119.277 62.9868 119.207 62.9829 119.138C62.9791 119.068 63.0027 118.9 62.9814 119.156C62.9893 119.061 62.9735 118.965 62.9787 118.869C62.9821 118.829 62.9854 118.789 62.9888 118.748L62.9921 118.708C62.9822 118.828 62.9477 118.944 62.8917 119.05C62.8351 119.156 62.7581 119.25 62.6647 119.326L62.1656 119.561L62.1797 119.563L61.6102 119.515L61.2153 119.243C61.2568 119.295 61.2462 119.279 61.1901 119.198C61.0735 119.019 61.189 119.212 61.2011 119.242C61.3246 119.499 61.5452 119.696 61.8141 119.791C62.0836 119.885 62.3796 119.87 62.6369 119.747C62.8947 119.624 63.0923 119.404 63.187 119.136C63.2818 118.868 63.2661 118.573 63.1426 118.316L63.1529 118.308Z" fill="#73BDE2"/>
<path d="M61.9781 119.986C61.733 120.303 61.4909 120.617 61.7731 121.202C62.1376 121.954 62.0588 120.97 61.9781 119.986Z" fill="#73BDE2"/>
<path d="M31.0985 52.1127L16.6907 69.5205C16.3943 69.8807 16.076 70.3014 16.1382 70.7652C16.2155 71.0852 16.3828 71.377 16.62 71.6064C31.2549 88.5703 46.2816 105.19 61.7004 121.466C77.186 107.071 91.607 88.954 105.594 73.1105C99.643 66.0366 98.1176 62.802 91.5623 52.5579C75.5201 49.2728 47.3158 49.9531 31.0975 52.1245" fill="#73BDE2"/>
<path d="M61.6987 121.56C71.0278 112.888 79.9708 102.865 88.6679 92.7999C81.7683 92.7874 74.8695 92.7814 67.972 92.7819L58.0505 92.7821L35.1672 92.7867C43.8828 102.487 52.7266 112.078 61.6987 121.56Z" fill="#303757"/>
<path d="M68.7181 92.8894L53.7888 92.6635C56.969 101.722 59.1996 111.952 61.7731 121.202C63.2398 111.986 66.1349 101.862 68.7181 92.8894Z" fill="#0088CC"/>
<path d="M34.8079 92.3745L53.7897 92.6635C51.261 85.4615 48.5464 78.3329 45.6457 71.277C42.3204 77.7242 38.1307 85.9298 34.8079 92.3745Z" fill="#0088CC"/>
<path d="M75.3348 71.5429C73.0644 78.6324 70.792 85.7454 68.7186 92.8916L88.3232 93.1872C85.2382 86.0986 80.3221 77.4563 75.3348 71.5429Z" fill="#0088CC"/>
<path d="M90.0689 52.6304C77.0717 50.2372 57.0775 50.2103 41.5231 51.3783L32.346 52.3202C36.9595 58.3841 41.578 64.4476 46.203 70.511L59.7394 53.3341C60.0885 52.8853 60.5101 52.4087 61.076 52.384C61.6418 52.3598 62.1174 52.8128 62.5042 53.2373C67.6557 58.924 71.9817 65.3013 75.3577 72.183C79.0795 67.6006 85.2033 59.3598 90.0689 52.6304Z" fill="#DAE0F4"/>
<path d="M41.6909 51.1319L33.3946 51.9825C37.975 53.455 42.3623 55.4676 46.4639 57.9767C46.7245 58.1719 47.0346 58.2902 47.3591 58.3186C47.6224 58.2944 47.8766 58.2084 48.0997 58.0673L60.7741 51.4962C61.1079 51.2864 61.4911 51.166 61.8855 51.1467C62.4136 51.1692 62.8502 51.5452 63.2459 51.8958C66.6059 54.8558 70.3959 57.2918 74.4872 59.1218C74.9605 59.3723 75.4827 59.5188 76.0182 59.5506C76.488 59.5188 76.9484 59.4015 77.376 59.2046C81.4001 57.6268 85.337 55.8366 89.17 53.8413L90.2272 52.3828C77.2447 49.9885 57.2458 49.9567 41.6909 51.1319Z" fill="white"/>
<path d="M30.9592 52.015L19.8734 65.2369L17.0357 68.6219C16.4205 69.3547 15.5033 70.1676 15.9418 71.2153C16.363 72.2061 17.4345 73.1655 18.1326 73.9744C19.2441 75.2621 20.3566 76.5499 21.4695 77.8378C29.7794 87.4001 38.2303 96.8382 46.8227 106.151C51.6368 111.381 56.4902 116.574 61.3819 121.731C61.4544 121.813 61.556 121.864 61.6653 121.873C61.775 121.882 61.8832 121.848 61.9683 121.78C74.4545 110.151 85.4541 97.0729 96.5365 84.1497C99.6434 80.5267 102.757 76.9088 105.916 73.3332C105.965 73.2623 105.99 73.1765 105.986 73.0896C105.982 73.0028 105.95 72.9195 105.893 72.8534C102.691 68.9911 99.7593 64.913 97.1205 60.6486C95.4452 57.9801 93.9233 55.1092 92.035 52.5758C91.4748 51.8119 90.0982 51.8624 89.2038 51.7086C87.9545 51.4969 86.6982 51.3135 85.4397 51.156C73.4774 49.6166 61.2643 49.6194 49.2343 50.1845C43.1501 50.4642 37.0439 50.8657 31.0151 51.7451C30.5297 51.8167 30.6692 52.5575 31.1564 52.4979C42.5372 51.1519 53.9953 50.557 65.4556 50.7166C71.3595 50.7903 77.2689 51.0513 83.1304 51.6881C85.5676 51.953 87.9972 52.2823 90.4069 52.734C91.2905 52.901 91.4308 53.1159 91.9227 53.8906C92.3813 54.6077 92.8367 55.3262 93.2883 56.0459C94.1246 57.3743 94.9583 58.7062 95.7891 60.0406C98.6965 64.6857 101.748 69.1565 105.275 73.359L105.253 72.8788C93.9984 85.6733 83.2377 98.9104 71.442 111.234C68.1959 114.625 64.87 117.939 61.4312 121.139L62.0176 121.188C53.6773 112.38 45.4493 103.469 37.334 94.4534C33.304 89.9742 29.3002 85.4721 25.3231 80.9465C23.3317 78.6814 21.347 76.4142 19.3685 74.1442C18.8628 73.5619 18.3598 72.9749 17.8342 72.4006C17.6277 72.1733 17.4136 71.9472 17.2071 71.7198C16.7684 71.2242 16.6673 71.2611 16.7067 70.5567C16.7521 69.7265 17.3238 69.2579 17.8275 68.6256L19.5138 66.56L31.2213 52.209C31.3606 52.0389 31.0812 51.8485 30.9428 52.0137L30.9592 52.015Z" fill="white"/>
<path d="M17.6421 71.9334C39.8291 69.026 62.2378 70.8007 84.4509 72.42L103.652 73.8194C103.668 73.8179 103.682 73.8109 103.693 73.7999C103.703 73.7889 103.71 73.7743 103.711 73.7589C103.713 73.7434 103.709 73.728 103.7 73.7154C103.691 73.7022 103.678 73.6934 103.663 73.6889C92.3106 72.8645 80.9623 71.9883 69.6051 71.2518C58.4406 70.5295 47.2441 70.0266 36.0542 70.3848C29.891 70.5682 23.7406 71.0589 17.6266 71.8557C17.5765 71.8515 17.5913 71.9388 17.6421 71.9334Z" fill="#303757"/>
<path d="M32.4806 52.1044L46.3322 70.2993C46.3377 70.3057 46.3441 70.3108 46.3517 70.3137C46.3592 70.3171 46.3673 70.3187 46.3756 70.318C46.3839 70.3178 46.3919 70.3153 46.3991 70.3113C46.4063 70.3069 46.4123 70.3014 46.4165 70.2944C48.9751 67.0624 51.5297 63.8292 54.0802 60.5951L57.8983 55.7479C58.4863 55.001 59.067 54.2484 59.6644 53.5049C59.8952 53.1992 60.142 52.9062 60.4045 52.6269L62.1209 52.5599C62.5302 52.7418 63.0045 53.4748 63.3066 53.8204C68.1421 59.3105 72.2256 65.4145 75.451 71.9733C75.4569 71.9852 75.4662 71.9951 75.4774 72.0029C75.4883 72.0103 75.5012 72.0145 75.5149 72.0157C75.5281 72.0168 75.5416 72.0147 75.5535 72.0093C75.5659 72.0034 75.5766 71.9952 75.5844 71.9844C80.7106 65.6598 85.6123 59.1627 90.2905 52.4932C90.2993 52.4761 90.3014 52.4561 90.2966 52.4374C90.2917 52.4187 90.2802 52.4022 90.2647 52.3908C90.2486 52.3799 90.2294 52.3746 90.2099 52.3766C90.1906 52.3782 90.1724 52.3872 90.1588 52.4012C86.3683 57.8091 82.4277 63.1083 78.3367 68.2984C77.9073 68.8412 76.0614 71.7614 75.4062 71.5324C75.173 71.453 74.5809 69.917 74.4525 69.6765C74.0611 68.9271 73.6606 68.2053 73.2461 67.4801C70.4204 62.5108 67.0823 57.8481 63.2869 53.5675C62.7821 53.0022 62.1214 52.0363 61.2405 52.0681C60.2337 52.1133 59.4862 53.5088 58.9682 54.1687L52.7953 62.02C51.8133 63.2642 50.8299 64.5087 49.8446 65.754L48.381 67.6235L47.5005 68.7452C47.2859 69.0212 46.9124 69.7572 46.6204 69.867C45.9487 70.1218 45.0127 68.3992 44.6818 67.9652L42.9515 65.6912L39.4913 61.1455L32.5712 52.052C32.5344 52.0036 32.4599 52.067 32.4989 52.1155L32.4806 52.1044Z" fill="#303757"/>
<path d="M35.6932 90.622L42.5425 77.389C43.0863 76.3376 43.6322 75.2878 44.1803 74.2386L45.0541 72.5593C45.4347 71.8261 45.5877 71.3107 45.998 72.3226C46.8519 74.4352 47.676 76.5595 48.4707 78.6955C51.8049 87.6289 54.663 96.7254 57.3416 105.87C58.8355 110.973 60.273 116.094 61.7058 121.216C61.7105 121.231 61.7199 121.245 61.7333 121.254C61.7463 121.264 61.7624 121.269 61.779 121.268C61.7951 121.267 61.8108 121.26 61.8226 121.25C61.835 121.239 61.8431 121.224 61.8458 121.208C63.4134 111.381 65.9821 101.747 68.8512 92.2262C70.2484 87.5837 71.7247 82.9666 73.2105 78.3553C73.456 77.599 74.9558 71.808 75.5519 71.9103C75.8199 71.9514 76.4498 73.0008 76.6212 73.2161C76.9718 73.6563 77.3177 74.0994 77.6596 74.5453C78.3803 75.4947 79.086 76.4603 79.777 77.442C82.7853 81.7669 85.3621 86.3744 87.4697 91.1987C87.5122 91.2933 87.6581 91.2144 87.6148 91.1298C84.499 84.0359 80.3815 77.4219 75.3882 71.4879C75.3803 71.4781 75.3699 71.4709 75.3583 71.4667C75.3468 71.4621 75.3345 71.461 75.322 71.4632C75.3099 71.4654 75.2984 71.4708 75.289 71.4788C75.2797 71.4867 75.2728 71.4971 75.2687 71.5086C71.0585 84.5964 66.6778 97.6622 63.6633 111.089C63.3347 112.556 63.0233 114.026 62.7291 115.5C62.6258 116.024 61.5429 120.636 61.7758 120.751C61.5452 120.64 61.327 119.315 61.2589 119.065L60.5476 116.518C60.1067 114.955 59.6649 113.391 59.2227 111.828C57.3444 105.231 55.4023 98.6517 53.2899 92.1244C51.0121 85.0792 48.5433 78.0827 45.7064 71.2391C45.6829 71.1799 45.6068 71.1974 45.5835 71.2458C42.2845 77.7021 38.9741 84.1514 35.6524 90.5948C35.65 90.623 35.6822 90.6381 35.694 90.6125L35.6932 90.622Z" fill="#303757"/>
<path d="M32.2838 61.5012C31.1815 63.0346 30.0881 64.5753 29.0025 66.123C28.9895 66.1411 28.9848 66.1641 28.989 66.186C28.9931 66.2078 29.0052 66.2271 29.0239 66.2397C29.0421 66.2522 29.0646 66.2573 29.087 66.2532C29.1089 66.249 29.1282 66.2365 29.1408 66.2183C30.2142 64.6632 31.2755 63.1001 32.3246 61.5284C32.3262 61.5257 32.3274 61.5226 32.3281 61.5195C32.3288 61.5163 32.3291 61.5132 32.3285 61.5099C32.3278 61.5071 32.3262 61.5038 32.3246 61.5013C32.323 61.4985 32.3204 61.4964 32.3178 61.4944C32.3152 61.4928 32.3121 61.4916 32.309 61.4909C32.3058 61.4902 32.3026 61.4904 32.2993 61.491C32.2961 61.4912 32.2932 61.4928 32.2903 61.4944C32.2879 61.496 32.2854 61.4985 32.2838 61.5012Z" fill="white"/>
<path d="M51.8556 67.5904C54.8035 63.8896 58.0513 60.044 60.1226 55.7731C60.1947 55.6285 59.9712 55.5216 59.8791 55.6476C58.4231 57.5411 57.1997 59.6362 55.8685 61.6166C54.5377 63.5974 53.12 65.5491 51.6449 67.441C51.5403 67.5733 51.7536 67.7201 51.8579 67.5906L51.8556 67.5904Z" fill="white"/>
<path d="M59.8468 64.0372L60.843 62.8487C60.875 62.8106 60.8138 62.7698 60.7819 62.8056L59.7262 63.9557C59.6656 64.0221 59.7831 64.1083 59.8445 64.037L59.8468 64.0372Z" fill="white"/>
<path d="M81.4114 68.8656C84.2206 65.5025 87.2482 61.9947 89.3164 58.113C89.3481 58.0676 89.3611 58.0114 89.3515 57.9562C89.3418 57.9014 89.3106 57.853 89.2651 57.8208C89.2192 57.7886 89.1625 57.7761 89.1076 57.7857C89.0527 57.7953 89.0038 57.826 88.9716 57.8714C86.2975 61.4279 84.0371 65.2574 81.2322 68.7385C81.144 68.8506 81.321 68.9706 81.4114 68.8656Z" fill="white"/>
<path d="M88.7496 67.2376C89.0089 67.0084 89.2672 66.7859 89.5273 66.5472C89.5458 66.5286 89.5566 66.5034 89.5579 66.4774C89.5587 66.4509 89.5498 66.4254 89.5327 66.4053C89.5156 66.3851 89.4919 66.3721 89.4656 66.369C89.4397 66.3659 89.4131 66.3724 89.3916 66.3875C89.1169 66.6036 88.8586 66.821 88.5923 67.0524C88.4737 67.1546 88.6331 67.3428 88.7496 67.2376Z" fill="white"/>
<path d="M53.3291 91.5422C55.6725 100.852 58.1576 110.156 61.1695 119.278C61.2191 119.43 61.4852 119.345 61.4381 119.19C58.6282 110.009 55.814 100.82 53.3706 91.5337C53.3728 91.5074 53.3217 91.515 53.3291 91.5422Z" fill="white"/>
<path d="M20.74 67.9632C22.6887 66.0869 24.5392 64.1233 26.3299 62.0974C28.0702 60.1315 30.1098 57.9996 31.2606 55.6215C31.388 55.3575 31.0039 55.2202 30.8397 55.4024C29.1088 57.3165 27.7856 59.6898 26.2036 61.7427C24.5042 63.9171 22.6707 65.9842 20.7137 67.9326C20.693 67.9496 20.7095 67.9821 20.74 67.9632Z" fill="white"/>
<path d="M26.754 65.5817C28.2107 64.021 29.5522 62.3568 30.7683 60.6026C30.7805 60.5835 30.7847 60.5605 30.7801 60.5381C30.7756 60.5158 30.7625 60.4964 30.7439 60.4834C30.7253 60.4704 30.7018 60.4652 30.6796 60.4684C30.6568 60.472 30.6366 60.484 30.6231 60.5021C29.4172 62.2604 28.1208 63.9554 26.7399 65.5805C26.7399 65.5805 26.7385 65.5973 26.754 65.5817Z" fill="white"/>
<path d="M27.6092 83.3081C28.3115 81.2891 29.1269 79.3105 30.0517 77.3828C30.9832 75.4456 32.1433 73.6491 33.1292 71.7471C33.2786 71.4561 32.8061 71.2231 32.6257 71.4854C30.2539 74.9568 28.7245 79.2871 27.514 83.2736C27.5092 83.2865 27.5099 83.3003 27.5158 83.3122C27.5216 83.3246 27.5319 83.3337 27.5443 83.3384C27.5572 83.3431 27.571 83.3425 27.5834 83.3366C27.5954 83.3308 27.6049 83.3206 27.6092 83.3081Z" fill="#DAE0F4"/>
<path d="M30.7055 82.8631C32.1936 79.232 34.119 75.7376 36.1605 72.4011C36.1993 72.3375 36.104 72.2701 36.0653 72.3337C34.0325 75.7354 32.3374 79.2609 30.6824 82.8543C30.6812 82.8684 30.6998 82.8773 30.7061 82.8563L30.7055 82.8631Z" fill="#DAE0F4"/>
<path d="M59.9473 71.1691C57.205 75.0875 54.8172 79.2409 52.8113 83.58C52.7382 83.7364 52.9918 83.834 53.0648 83.6726C55.0243 79.3296 57.3335 75.1518 59.9702 71.1802C59.9702 71.1802 59.9718 71.1615 59.9561 71.179L59.9473 71.1691Z" fill="#DAE0F4"/>
<path d="M62.566 72.6827C59.739 77.4358 56.838 82.1584 54.1509 86.9927C54.08 87.1228 54.2654 87.2577 54.3436 87.1283C57.2305 82.404 59.914 77.5529 62.661 72.7478C62.6974 72.684 62.6027 72.6166 62.566 72.6827Z" fill="#DAE0F4"/>
<path d="M88.5541 73.6943C87.4649 75.769 86.3685 77.8362 85.182 79.8671C85.1041 79.9993 85.2993 80.1323 85.3747 80.0026C86.5274 77.9474 87.62 75.8657 88.5675 73.7096C88.5685 73.6978 88.5564 73.6945 88.553 73.7084L88.5541 73.6943Z" fill="#DAE0F4"/>
<path d="M90.7069 74.3755L87.4935 79.9376C87.4322 80.0401 87.5888 80.1465 87.6428 80.0435L90.7202 74.3862C90.7202 74.3862 90.7218 74.3671 90.7061 74.385L90.7069 74.3755Z" fill="#DAE0F4"/>
<path d="M18.7902 70.3754C22.8802 69.7839 26.9839 69.4302 31.1073 69.1811C33.2081 69.055 35.3101 68.9913 37.4164 68.9686C39.4101 68.9457 41.4574 69.0807 43.4278 68.8146C43.6704 68.7799 43.6221 68.4409 43.4072 68.4014C41.3361 68.0018 39.1115 68.1226 37.0132 68.1912C35.0741 68.253 33.1377 68.3598 31.2038 68.5126C27.028 68.8736 22.8772 69.4792 18.7728 70.3259C18.7663 70.3272 18.7604 70.3312 18.7572 70.3369C18.7535 70.3421 18.7521 70.3489 18.7534 70.3554C18.7546 70.3619 18.7587 70.3677 18.7644 70.3709C18.7701 70.3746 18.7764 70.3761 18.7829 70.3748L18.7902 70.3754Z" fill="#DAE0F4"/>
<path d="M50.1032 69.2585C57.8779 69.3091 65.5493 70.4502 73.3014 70.8001C73.4302 70.8109 73.5578 70.7702 73.656 70.6869C73.7546 70.604 73.8158 70.4855 73.8264 70.3573C73.8371 70.2291 73.7964 70.1022 73.7129 70.0041C73.6299 69.9056 73.5107 69.8445 73.3819 69.8337C65.7073 68.9291 57.8134 68.8401 50.1018 69.2419L50.1004 69.2582L50.1032 69.2585Z" fill="#DAE0F4"/>
<path d="M79.7017 71.1111C83.5868 71.0476 87.3344 70.9348 91.1938 71.4116C93.058 71.6434 94.9248 71.8109 96.783 72.088C98.705 72.3745 100.63 72.7693 102.56 72.9851C102.652 72.9905 102.743 72.9633 102.817 72.9081C102.89 72.8528 102.941 72.7729 102.961 72.6834C102.981 72.594 102.969 72.5001 102.925 72.4191C102.882 72.3382 102.811 72.275 102.726 72.2413C99.1536 71.0497 95.0198 70.5615 91.2662 70.5429C87.4501 70.526 83.4888 70.6115 79.7043 71.0802C79.6874 71.0788 79.6869 71.1121 79.7017 71.1111Z" fill="#DAE0F4"/>
<path d="M45.4203 73.9191C44.1465 76.9588 42.7201 79.9332 41.1457 82.8298C40.4063 84.188 39.6711 85.5516 38.8882 86.887C38.1322 88.1866 37.2354 89.4429 36.6196 90.8142C36.4309 91.2356 37.0436 91.4853 37.3101 91.1702C38.3388 89.9368 39.0817 88.4209 39.8514 87.0176C40.5762 85.6916 41.2731 84.3536 41.9177 82.9829C43.2858 80.0421 44.4938 77.0326 45.5654 73.9646C45.5692 73.9466 45.5662 73.928 45.5575 73.9117C45.5487 73.8959 45.5341 73.8837 45.5173 73.8772C45.4999 73.8708 45.4811 73.871 45.4636 73.8774C45.4466 73.8837 45.4323 73.8958 45.4236 73.912L45.4203 73.9191Z" fill="#DAE0F4"/>
<path d="M36.3639 92.0013C36.3653 91.985 36.3999 91.9733 36.4123 91.9675L36.4571 91.9426C36.4614 91.9412 36.4647 91.9392 36.4677 91.9362C36.4711 91.9333 36.4733 91.9294 36.4745 91.9254C36.4758 91.9215 36.4761 91.9169 36.4751 91.9128C36.4746 91.9086 36.4726 91.9048 36.4701 91.9014C36.4672 91.8985 36.4638 91.8954 36.4603 91.8938C36.4564 91.8921 36.4519 91.8913 36.4477 91.8918C36.4436 91.8919 36.4394 91.8934 36.4356 91.8954C36.4322 91.8978 36.4292 91.9007 36.4271 91.9047L36.3948 91.947C36.3948 91.947 36.37 91.9877 36.3531 91.9885C36.3367 91.9894 36.3368 91.9872 36.3515 92.0075C36.3667 92.0279 36.3728 92.0093 36.3728 92.0093L36.3639 92.0013Z" fill="#DAE0F4"/>
<path d="M75.8822 73.164C75.1042 76.1348 74.1907 79.0608 73.1786 81.9645C72.1665 84.8677 70.89 87.687 69.911 90.5957C69.7614 91.0378 70.3714 91.2319 70.5745 90.8401C72.0056 88.0624 72.9305 84.9409 73.8149 81.9576C74.6699 79.0696 75.3331 76.1227 75.8984 73.1677C75.8984 73.1677 75.8853 73.1547 75.882 73.1663L75.8822 73.164Z" fill="#DAE0F4"/>
<path d="M70.036 91.7105C70.0405 91.7108 70.0447 91.7094 70.0482 91.7065C70.0516 91.704 70.0537 91.6997 70.0541 91.6956C70.0545 91.6911 70.053 91.6869 70.0501 91.6835C70.0472 91.68 70.0433 91.6779 70.0387 91.6775C70.0347 91.6772 70.03 91.6786 70.0266 91.6815C70.0231 91.6844 70.0214 91.6883 70.0211 91.6929C70.0207 91.6969 70.0217 91.7015 70.0247 91.7045C70.0276 91.7079 70.0319 91.7101 70.036 91.7105Z" fill="#DAE0F4"/>
<path d="M39.2667 95.0527C42.3956 98.5907 45.5588 102.095 48.6709 105.637C50.2049 107.383 51.7104 109.153 53.3337 110.806C55.0161 112.526 56.8464 114.118 58.6101 115.759C58.6699 115.816 58.7699 115.739 58.7109 115.671C57.1766 113.928 55.7168 112.128 54.1581 110.414C52.543 108.634 50.7877 106.98 49.0894 105.28C45.7455 101.929 42.5201 98.4766 39.3194 94.9925C39.2908 94.9617 39.2395 95.0051 39.2681 95.0363L39.2667 95.0527Z" fill="#0088CC"/>
<path d="M70.6751 93.884C68.3214 101.973 65.755 109.996 63.6305 118.156C63.554 118.441 63.9669 118.608 64.0704 118.317C66.9406 110.367 68.9185 102.151 70.691 93.8973C70.691 93.8973 70.6751 93.884 70.6741 93.8959L70.6751 93.884Z" fill="#0088CC"/>
<path d="M63.1681 119.705L63.2745 119.637C63.281 119.632 63.2848 119.624 63.2855 119.616C63.2862 119.607 63.2837 119.599 63.2783 119.592C63.2744 119.584 63.2671 119.578 63.2582 119.575C63.2497 119.572 63.24 119.573 63.232 119.576L63.1277 119.644C63.123 119.646 63.1192 119.648 63.1157 119.651C63.1122 119.655 63.1096 119.659 63.1074 119.663C63.1057 119.667 63.1048 119.672 63.1049 119.676C63.1049 119.681 63.1059 119.686 63.1083 119.69C63.1103 119.695 63.1132 119.698 63.1166 119.701C63.1205 119.704 63.1244 119.706 63.1293 119.708C63.1338 119.709 63.1384 119.709 63.143 119.709C63.1481 119.708 63.1524 119.706 63.1562 119.704L63.1681 119.705Z" fill="#0088CC"/>
<path d="M19.7545 72.2362C20.8971 73.7014 22.0366 75.1705 23.1945 76.6223C24.224 77.9156 25.1978 79.5026 26.4881 80.5494C26.7485 80.7624 27.0392 80.3825 26.8629 80.1385C25.8452 78.7318 24.5174 77.4759 23.3537 76.1815C22.19 74.8871 20.9579 73.5435 19.7576 72.2319L19.7545 72.2362Z" fill="white"/>
<path d="M29.2294 83.4766C30.1938 84.5667 31.0861 85.7181 31.9006 86.9238C32.7153 88.115 33.2865 89.5225 34.194 90.6403C34.4127 90.898 34.7641 90.6261 34.6555 90.3442C34.1694 89.0656 33.1341 87.9251 32.3069 86.8547C31.3709 85.6507 30.3538 84.5214 29.3091 83.4113C29.2626 83.3644 29.1876 83.4278 29.2317 83.4767L29.2294 83.4766Z" fill="white"/>
<path d="M76.1305 72.1522C78.4189 75.412 80.5447 78.7804 82.5902 82.1943C84.5739 85.5078 86.2035 89.0161 88.2264 92.2944C88.2444 92.3316 88.2764 92.36 88.3151 92.3737C88.3544 92.387 88.3967 92.3846 88.434 92.3671C88.4712 92.3492 88.4995 92.3172 88.5133 92.2785C88.5266 92.2398 88.5242 92.1971 88.5067 92.1604C87.2423 88.3831 85.1256 84.8773 83.0212 81.5107C80.95 78.2292 78.6505 75.0967 76.1391 72.136C76.1379 72.1345 76.1366 72.1335 76.1353 72.1325C76.134 72.1319 76.1322 72.1313 76.1304 72.1312C76.129 72.1306 76.1272 72.1309 76.1258 72.1312C76.1239 72.1316 76.1225 72.1323 76.121 72.1331C76.12 72.1344 76.1185 72.1357 76.118 72.137C76.1169 72.1383 76.1163 72.1401 76.1162 72.1414C76.1161 72.1433 76.1159 72.1451 76.1163 72.1465C76.1166 72.1483 76.1174 72.1498 76.1186 72.1512L76.1305 72.1522Z" fill="white"/>
<path d="M45.4761 70.3906C46.6863 73.8932 47.8074 77.426 48.9803 80.942C49.6053 82.8094 50.219 84.68 50.8209 86.555C51.3411 88.1734 51.7881 89.8887 52.4969 91.4321C52.5224 91.4778 52.563 91.5132 52.6114 91.5319C52.6603 91.551 52.7138 91.5523 52.7637 91.5363C52.8132 91.5198 52.8558 91.4872 52.8834 91.4428C52.9113 91.3989 52.923 91.3468 52.9163 91.295C52.3606 87.7709 50.867 84.214 49.6905 80.8579C48.4383 77.3138 46.9891 73.8296 45.5061 70.3766C45.5077 70.3575 45.4679 70.3734 45.4761 70.3906Z" fill="white"/>
<path d="M37.6188 92.9003C45.6202 92.6518 53.6356 92.9491 61.6363 93.0831C65.5657 93.1474 69.498 93.2385 73.4281 93.2411C77.5259 93.2434 81.617 93.0681 85.7177 93.0963C85.7869 93.1021 85.7964 92.9885 85.7268 92.9873C81.6532 92.9251 77.568 92.6565 73.4839 92.5715C69.4742 92.4909 65.4625 92.4888 61.4524 92.4677C53.5042 92.4246 45.5494 92.3182 37.6146 92.8089C37.5645 92.8047 37.5684 92.9007 37.607 92.8994L37.6188 92.9003Z" fill="white"/>
<path d="M32.6619 52.7672C35.0687 55.2124 36.9314 58.2289 38.9622 60.982C41.0681 63.842 43.1132 66.914 45.507 69.5421C45.7517 69.8015 46.2791 69.5182 46.0673 69.1824C44.141 66.1538 41.701 63.3593 39.4732 60.549C37.3567 57.8771 35.3435 54.9127 32.6849 52.7549C32.6849 52.7549 32.6681 52.7535 32.6838 52.769L32.6619 52.7672Z" fill="white"/>
<path d="M61.9921 51.6911C64.223 54.9533 66.5061 58.1888 68.7849 61.4217C69.9631 63.0926 71.1126 64.7877 72.1996 66.5133C73.1966 68.0807 74.0612 69.8569 75.2238 71.3068C75.4677 71.6091 75.8834 71.2853 75.7638 70.96C75.1072 69.1696 73.8462 67.4533 72.8063 65.8562C71.7659 64.259 70.658 62.6415 69.5339 61.0703C67.2047 57.8095 64.634 54.6864 62.032 51.6463C62.0009 51.6131 61.9566 51.6547 61.9802 51.6901L61.9921 51.6911Z" fill="white"/>
<path d="M6.82227 73.0447C6.919 73.7814 6.96985 74.5244 7.03794 75.2638C7.03696 75.2757 7.05706 75.2654 7.05478 75.2652C6.97921 74.5275 6.88498 73.7882 6.83391 73.0479L6.82208 73.047L6.82227 73.0447Z" fill="white"/>
<path d="M24.4811 34.6503L24.2808 34.6337C24.2715 34.6352 24.2624 34.6399 24.2559 34.6471C24.2493 34.6539 24.2454 34.6632 24.2446 34.6727C24.2438 34.6823 24.2462 34.6916 24.2515 34.6999C24.2568 34.7076 24.265 34.7138 24.2739 34.7168L24.4742 34.7335C24.4839 34.7321 24.4926 34.7273 24.4991 34.7205C24.5057 34.7133 24.5096 34.7044 24.5104 34.6949C24.5112 34.6854 24.5088 34.6755 24.5035 34.6678C24.4982 34.6596 24.4905 34.6534 24.4811 34.6503Z" fill="white"/>
<path d="M48.6099 114.203L48.0537 112.962L48.6099 114.203Z" fill="white"/>
<path d="M11.1083 15.9361C13.7954 20.6323 16.418 25.383 18.924 30.1788C21.4301 34.9747 23.6467 39.9591 26.1971 44.7397C26.687 45.6552 28.044 45.0035 27.6535 44.0459C25.5936 38.9958 22.8054 34.1045 20.0973 29.3731C17.4116 24.6865 14.5562 20.1388 11.4863 15.6903C11.3405 15.4822 10.9807 15.7127 11.1083 15.9361Z" fill="#73BDE2"/>
<path d="M42.0249 0.733685C42.4089 7.29604 42.8633 13.8786 43.6021 20.4132C43.9605 23.5983 44.3405 26.7828 44.7812 29.9604C45.0074 31.5855 45.2424 33.2098 45.4862 34.8332C45.7213 36.4184 45.8189 38.1238 46.4091 39.6217C46.677 40.2962 47.7679 40.0718 47.7982 39.3667C47.8632 37.8328 47.4331 36.2624 47.1767 34.7566C46.9039 33.1403 46.6384 31.5247 46.3811 29.9097C45.8669 26.6686 45.3521 23.4298 44.881 20.1827C43.9392 13.6958 42.9767 7.22146 42.1853 0.711221C42.1724 0.602578 42.0137 0.637134 42.0195 0.742807L42.0249 0.733685Z" fill="#73BDE2"/>
<path d="M0.968595 45.2853C3.11305 47.3357 5.23847 49.411 7.39328 51.4526C8.38062 52.388 9.35225 53.3414 10.2853 54.3227C11.2596 55.3601 12.1 56.563 13.1367 57.5388C13.6369 58.0158 14.6904 57.525 14.2546 56.8195C12.8626 54.5522 10.4372 52.6766 8.42044 50.9642C6.05012 48.9454 3.54022 47.0724 1.0957 45.1407C1.01444 45.0763 0.896171 45.2028 0.973947 45.2761L0.968595 45.2853Z" fill="#73BDE2"/>
<path d="M0.633105 65.1687C2.6903 66.11 4.76707 67.0145 6.87198 67.8399C8.32596 68.4179 10.4995 69.7178 12.0742 68.9908C12.1968 68.9273 12.2926 68.8227 12.3454 68.6957C12.3977 68.5683 12.4031 68.4264 12.3604 68.2955C12.3177 68.1647 12.2298 68.0531 12.1125 67.9806C11.9948 67.9081 11.8555 67.8795 11.7186 67.8997C10.6969 68.0969 9.73727 67.7204 8.75881 67.4594C7.85197 67.2245 6.94722 66.9756 6.04459 66.7123C4.24119 66.2017 2.44731 65.654 0.662986 65.0686C0.656764 65.0663 0.650429 65.0653 0.643524 65.0656C0.637075 65.066 0.630513 65.0678 0.62433 65.0704C0.618146 65.0731 0.612765 65.0773 0.608251 65.0819C0.604155 65.0871 0.60047 65.0927 0.598118 65.0989C0.595767 65.1051 0.595203 65.112 0.595128 65.1184C0.59547 65.1253 0.597212 65.1318 0.599944 65.1375C0.603094 65.1437 0.606777 65.1491 0.611899 65.1536C0.616565 65.1581 0.622712 65.1614 0.628934 65.1637L0.633105 65.1687Z" fill="#73BDE2"/>
<path d="M76.3086 3.00061C75.2978 9.17185 74.2694 15.3511 73.0002 21.4769C72.3816 24.4658 71.7595 27.4529 71.133 30.438C70.8078 32.0076 70.466 33.5735 70.125 35.1346C69.7836 36.6957 69.2983 38.2567 69.2646 39.8435C69.2551 40.0015 69.3026 40.1574 69.3984 40.2835C69.4938 40.4095 69.6318 40.4975 69.7866 40.5319C69.9414 40.5663 70.1037 40.5441 70.2437 40.4702C70.3838 40.3958 70.4929 40.2745 70.551 40.1278C71.142 38.7952 71.3579 37.2715 71.6583 35.8504C71.9825 34.3261 72.2756 32.7944 72.5687 31.2628C73.1708 28.1259 73.6983 24.9756 74.1508 21.8119C75.0414 15.5589 75.8623 9.30732 76.4083 3.01373C76.4094 3.0005 76.405 2.98737 76.3967 2.97724C76.3879 2.96713 76.3756 2.96079 76.3624 2.95969C76.3492 2.95859 76.336 2.9628 76.3257 2.97132C76.3158 2.97993 76.3093 2.99216 76.3082 3.00538L76.3086 3.00061Z" fill="#73BDE2"/>
<path d="M106.608 10.713C105.122 13.2041 103.874 15.8514 102.511 18.4126C101.149 20.9738 99.7309 23.5304 98.3304 26.0836C96.9664 28.573 95.5908 31.059 94.2266 33.5507C93.5248 34.8324 92.8277 36.1169 92.1346 37.4041C91.5282 38.52 90.4813 39.8287 90.4096 41.1184C90.3993 41.2581 90.4307 41.3975 90.4994 41.52C90.5685 41.642 90.6721 41.7413 90.7969 41.8057C90.9218 41.8696 91.0631 41.8956 91.2028 41.8807C91.3425 41.8653 91.475 41.81 91.5833 41.7206C92.6224 40.9682 93.1543 39.3654 93.7507 38.2535C94.4057 37.0332 95.0503 35.8057 95.6845 34.571C97.0167 31.9738 98.2958 29.3531 99.5402 26.7151C100.752 24.1461 101.909 21.5558 103.065 18.9655C104.29 16.247 105.615 13.5297 106.615 10.7184C106.615 10.7184 106.604 10.7031 106.598 10.717L106.608 10.713Z" fill="#73BDE2"/>
<path d="M118.964 37.202C116.908 39.7843 115.153 42.6212 113.137 45.2499C111.12 47.8785 108.97 50.4218 106.893 53.0023C106.288 53.7525 107.483 54.5551 108.103 53.8511C110.304 51.2717 112.319 48.5414 114.135 45.6796C115.872 42.9966 117.748 40.165 118.978 37.2103C118.978 37.2103 118.979 37.1961 118.963 37.2091L118.964 37.202Z" fill="#73BDE2"/>
<path d="M127.808 58.8187C123.017 61.6056 118.258 64.7513 114.299 68.6401C113.865 69.0676 114.444 69.7759 114.917 69.3705C119.143 65.7405 123.251 62.0481 127.819 58.8315C127.819 58.8315 127.82 58.8124 127.807 58.8305L127.808 58.8187Z" fill="#73BDE2"/>
<path d="M6.35455 81.123C8.88372 81.2359 11.4129 81.7501 13.9294 81.812C14.0055 81.8115 14.0785 81.7828 14.1341 81.7316C14.1897 81.6799 14.224 81.61 14.2303 81.5345C14.2366 81.4591 14.2144 81.384 14.168 81.3243C14.1217 81.2646 14.0545 81.2242 13.9795 81.2111C11.5538 80.7196 8.82262 80.9296 6.36285 81.0235C6.30093 81.0183 6.28744 81.1197 6.35455 81.123Z" fill="#73BDE2"/>
<path d="M125.705 80.7824C121.419 80.8459 117.14 80.7355 112.862 80.508C112.397 80.4812 112.336 81.2076 112.803 81.2199C117.109 81.3714 121.42 81.2519 125.71 80.8616C125.756 80.8654 125.753 80.7769 125.705 80.7774L125.705 80.7824Z" fill="#73BDE2"/>
</g>
<defs>
<clipPath id="clip0_250_30365">
<rect width="128" height="128" fill="white"/>
</clipPath>
</defs>
</svg>
