<svg width="80" height="80" viewBox="0 0 80 80" fill="none" xmlns="http://www.w3.org/2000/svg">
<path fill-rule="evenodd" clip-rule="evenodd" d="M49.1251 55.5393L43.5281 57.0416V55.0659L43.082 54.6133H39.878V56.9181V58.5437H43.3051L47.5229 56.6917L49.1251 55.5393Z" fill="#CDBDB2"/>
<path fill-rule="evenodd" clip-rule="evenodd" d="M30.8745 55.5393L36.3497 57.0416V55.0659L36.8161 54.6133H39.9998V56.9181V58.5437H36.5728L32.3548 56.6917L30.8745 55.5393Z" fill="#CDBDB2"/>
<path fill-rule="evenodd" clip-rule="evenodd" d="M43.0825 51.2583L43.5286 55.0653L42.9608 54.6125H37.0394L36.35 55.0653L36.8164 51.2583L37.7289 50.6821L42.2916 50.7851L43.0825 51.2583Z" fill="#393939"/>
<path fill-rule="evenodd" clip-rule="evenodd" d="M46.1653 25.4321L43.4277 31.9144L42.1705 50.7847H37.7295L36.3505 31.9144L33.836 25.4321H46.1653Z" fill="#F89C35"/>
<path fill-rule="evenodd" clip-rule="evenodd" d="M58.1292 39.673L61.3332 49.0568L53.3434 48.5834H48.2129V44.5296L48.436 36.2158L49.5918 37.1213L58.1292 39.673Z" fill="#F89D35"/>
<path fill-rule="evenodd" clip-rule="evenodd" d="M52.0847 40.7227L42.7363 40.9489L43.7704 45.8055L48.2115 44.6531L52.0847 40.7227Z" fill="#D87C30"/>
<path fill-rule="evenodd" clip-rule="evenodd" d="M52.0847 40.825L48.2115 44.529V48.2331L52.0847 40.825Z" fill="#EA8D3A"/>
<path fill-rule="evenodd" clip-rule="evenodd" d="M48.2125 44.6523L43.6498 45.8046L42.1694 50.7846L43.2037 51.3609L48.2125 48.3563V44.6523Z" fill="#F89D35"/>
<path fill-rule="evenodd" clip-rule="evenodd" d="M48.2124 48.3572L49.1251 55.539L43.082 51.2588L48.2124 48.3572Z" fill="#EB8F35"/>
<path fill-rule="evenodd" clip-rule="evenodd" d="M42.7405 40.9487L42.1733 50.7851L43.8749 45.7641L42.7405 40.9487Z" fill="#EA8E3A"/>
<path fill-rule="evenodd" clip-rule="evenodd" d="M53.466 48.4806L48.2139 48.3572L49.1264 55.539L53.466 48.4806Z" fill="#D87C30"/>
<path fill-rule="evenodd" clip-rule="evenodd" d="M58.8187 58.6667L49.1255 55.5389L53.4651 48.4805L61.3332 49.0566L58.8187 58.6667Z" fill="#EB8F35"/>
<path fill-rule="evenodd" clip-rule="evenodd" d="M43.4257 31.9148L48.3331 36.0921L52.0847 40.7223L42.7363 41.0721L43.4257 31.9148Z" fill="#E8821E"/>
<path fill-rule="evenodd" clip-rule="evenodd" d="M49.1251 55.5387L43.082 51.2583L43.5282 54.9624V57.0408L47.6447 56.2383L49.1251 55.5387Z" fill="#DFCEC3"/>
<path fill-rule="evenodd" clip-rule="evenodd" d="M30.875 55.5387L36.8166 51.2583L36.3502 54.9624V57.0408L32.2539 56.2383L30.875 55.5387Z" fill="#DFCEC3"/>
<path fill-rule="evenodd" clip-rule="evenodd" d="M45.2537 43.0269L43.9965 45.7021L48.4375 44.529L45.2537 43.0269Z" fill="#393939"/>
<path fill-rule="evenodd" clip-rule="evenodd" d="M58.9434 20L43.4302 31.9148L46.0462 25.4327L58.9434 20Z" fill="#E88F35"/>
<path fill-rule="evenodd" clip-rule="evenodd" d="M58.9405 20L60.9887 26.3587L59.8531 33.3141L60.6439 33.7669L59.5083 34.8164L60.4208 35.6189L59.1636 36.7713L59.9544 37.4709L58.1294 39.7757L49.5717 37.1212C45.3944 33.7257 43.326 31.9972 43.4071 31.9148C43.4883 31.8325 48.6795 27.8609 58.9405 20Z" fill="#8E5A30"/>
<path fill-rule="evenodd" clip-rule="evenodd" d="M21.8705 39.673L18.6665 49.0568L26.6562 48.5834H31.7868V44.5296L31.5637 36.2158L30.4281 37.1213L21.8705 39.673Z" fill="#F89D35"/>
<path fill-rule="evenodd" clip-rule="evenodd" d="M27.9155 40.7227L37.2639 40.9489L36.2501 45.8055L31.7887 44.6531L27.9155 40.7227Z" fill="#D87C30"/>
<path fill-rule="evenodd" clip-rule="evenodd" d="M27.9155 40.8252L31.7887 44.5292V48.2333L27.9155 40.8252Z" fill="#EA8D3A"/>
<path fill-rule="evenodd" clip-rule="evenodd" d="M31.7876 44.6523L36.3503 45.8046L37.8307 50.7846L36.8167 51.3609L31.7876 48.3563V44.6523Z" fill="#F89D35"/>
<path fill-rule="evenodd" clip-rule="evenodd" d="M31.7876 48.3572L30.8749 55.539L36.8167 51.3616L31.7876 48.3572Z" fill="#EB8F35"/>
<path fill-rule="evenodd" clip-rule="evenodd" d="M37.261 40.9487L37.8282 50.7851L36.1265 45.7641L37.261 40.9487Z" fill="#EA8E3A"/>
<path fill-rule="evenodd" clip-rule="evenodd" d="M26.5366 48.4806L31.7889 48.3572L30.8764 55.539L26.5366 48.4806Z" fill="#D87C30"/>
<path fill-rule="evenodd" clip-rule="evenodd" d="M21.181 58.6667L30.8742 55.5389L26.5346 48.4805L18.6665 49.0566L21.181 58.6667Z" fill="#EB8F35"/>
<path fill-rule="evenodd" clip-rule="evenodd" d="M36.5745 31.9148L31.6671 36.0921L27.9155 40.7223L37.2639 41.0721L36.5745 31.9148Z" fill="#E8821E"/>
<path fill-rule="evenodd" clip-rule="evenodd" d="M34.7476 43.0269L36.0048 45.7021L31.5638 44.529L34.7476 43.0269Z" fill="#393939"/>
<path fill-rule="evenodd" clip-rule="evenodd" d="M21.0605 20L36.5736 31.9148L33.9576 25.4327L21.0605 20Z" fill="#E88F35"/>
<path fill-rule="evenodd" clip-rule="evenodd" d="M21.0594 20L19.0112 26.3587L20.1468 33.3141L19.356 33.7669L20.4916 34.8164L19.5791 35.6189L20.8363 36.7713L20.0455 37.4709L21.8706 39.7757L30.4282 37.1212C34.6055 33.7257 36.6739 31.9972 36.5928 31.9148C36.5116 31.8325 31.3407 27.8609 21.0594 20Z" fill="#8E5A30"/>
</svg>
