<svg width="157" height="117" viewBox="0 0 157 117" fill="none" xmlns="http://www.w3.org/2000/svg">
<path d="M51.9187 53.2392C53.4702 54.613 56.8547 57.6101 57.4441 55.2234C58.046 52.7818 54.757 50.042 53.1506 48.7038C52.9699 48.5533 52.8104 48.4205 52.6802 48.3079L51.5447 52.9102C51.6519 53.003 51.7777 53.1144 51.9187 53.2392Z" fill="url(#paint0_linear_317_17978)"/>
<path d="M50.1638 60.6976C52.0248 62.3395 56.0921 65.9283 56.7388 63.3012C57.4012 60.6161 53.4575 57.3171 51.5326 55.707L51.5311 55.7057L51.5292 55.7041L51.5277 55.7029C51.3144 55.5245 51.1261 55.3669 50.9717 55.2333L49.7193 60.3076C49.8469 60.4179 49.9964 60.5499 50.1638 60.6976Z" fill="url(#paint1_linear_317_17978)"/>
<path d="M107.239 33.228C107.201 33.1632 107.188 33.0865 107.204 33.013L107.353 32.3145C107.387 32.1525 107.546 32.0491 107.708 32.0837L114.113 33.4502C114.187 33.466 114.252 33.509 114.296 33.5707L116.7 36.9782C116.758 37.0614 116.771 37.1686 116.733 37.2631L114.08 43.8678C113.987 44.0987 113.67 44.1227 113.543 43.9084L107.239 33.228Z" fill="url(#paint2_linear_317_17978)"/>
<path d="M104.926 45.3619C104.743 45.3504 104.613 45.1791 104.651 45L106.281 37.3493C106.337 37.0819 106.693 37.0239 106.832 37.2594L111.586 45.3132C111.709 45.5206 111.549 45.7803 111.309 45.7651L104.926 45.3619Z" fill="url(#paint3_linear_317_17978)"/>
<path d="M104.332 47.7294C104.184 47.72 104.051 47.8208 104.02 47.9662L100.874 62.7411C100.806 63.0602 101.224 63.2432 101.412 62.9767L111.53 48.6422C111.665 48.4505 111.538 48.1845 111.304 48.1697L104.332 47.7294Z" fill="url(#paint4_linear_317_17978)"/>
<path d="M118.236 39.9596C118.325 39.739 118.623 39.7042 118.76 39.8985L123.111 46.0669C123.257 46.2734 123.098 46.5564 122.846 46.5392L116.199 46.0847C115.996 46.0708 115.865 45.8626 115.941 45.6735L118.236 39.9596Z" fill="url(#paint5_linear_317_17978)"/>
<path d="M125.34 49.2265C125.288 49.1527 125.206 49.1063 125.116 49.1001L116.865 48.536C116.623 48.5194 116.462 48.7834 116.589 48.9913L124.78 62.4519C124.912 62.6694 125.238 62.6337 125.32 62.3927L128.3 53.6367C128.331 53.5458 128.317 53.4455 128.262 53.3671L125.34 49.2265Z" fill="url(#paint6_linear_317_17978)"/>
<path d="M129.87 56.4734C129.949 56.2414 130.258 56.1969 130.399 56.3973L136.508 65.056C136.524 65.0789 136.53 65.1076 136.524 65.1351C136.514 65.1836 136.47 65.2174 136.42 65.2147L127.464 64.7256C127.265 64.7148 127.132 64.5174 127.196 64.3293L129.87 56.4734Z" fill="url(#paint7_linear_317_17978)"/>
<path d="M135.927 67.9385C135.965 67.7584 135.834 67.5865 135.65 67.5764L128.2 67.1696C127.959 67.1564 127.802 67.4188 127.928 67.6251L133.511 76.7995C133.652 77.0314 134.004 76.9717 134.06 76.7061L135.927 67.9385Z" fill="url(#paint8_linear_317_17978)"/>
<path d="M130.865 77.0683C131.002 77.2931 130.804 77.5725 130.547 77.5176L122.886 75.8831C122.702 75.8438 122.599 75.647 122.672 75.4735L125.392 68.9898C125.487 68.764 125.798 68.7408 125.925 68.95L130.865 77.0683Z" fill="url(#paint9_linear_317_17978)"/>
<path d="M119.9 75.2459C120.041 75.276 120.183 75.2016 120.239 75.0686L123.263 67.8617C123.354 67.6438 123.169 67.4106 122.936 67.4497L102.329 70.9047C102.002 70.9594 101.992 71.4249 102.316 71.494L119.9 75.2459Z" fill="url(#paint10_linear_317_17978)"/>
<path d="M100.933 68.7049C100.67 68.7489 100.485 68.4537 100.638 68.2359L113.721 49.701C113.845 49.5246 114.11 49.5336 114.222 49.7181L123.246 64.5468C123.356 64.7281 123.248 64.9635 123.039 64.9986L100.933 68.7049Z" fill="url(#paint11_linear_317_17978)"/>
<path fill-rule="evenodd" clip-rule="evenodd" d="M82.1569 109.679C82.4295 109.603 82.7077 109.483 82.988 109.311C86.4448 107.197 89.0866 104.5 91.0566 101.403C96.8948 107.027 103.564 111.746 111 114.638C112.002 115.027 113.017 115.383 114.046 115.704C122.222 118.235 128.709 116.769 135.228 113.798L135.336 113.748C137.902 112.572 140.474 111.165 143.157 109.679C143.43 109.603 143.708 109.483 143.988 109.311C161.939 98.3346 157.913 71.6154 151.953 54.9936C144.435 34.0134 129.22 11.4495 107.895 2.55659C99.604 -0.896791 91.298 -0.814707 84.6913 2.57911C84.4465 2.6479 84.2095 2.74698 83.9865 2.87554L83.7311 3.01645C82.4565 3.72003 81.2142 4.40968 80.0101 5.10051C78.9773 5.69307 77.9727 6.28649 77 6.89032C74.5329 8.42187 72.2711 10.0204 70.2764 11.8415C68.9232 13.077 67.6928 14.4149 66.6046 15.904C60.7951 10.2584 54.204 5.60452 46.8952 2.55659C38.604 -0.896792 30.298 -0.814707 23.6913 2.57911C23.4465 2.6479 23.2095 2.74698 22.9864 2.87554C21.6223 3.62808 20.2944 4.36363 19.0101 5.10051C10.0198 10.2587 3.16287 15.4826 0.930382 27.0646C-2.72675 45.9457 4.91217 66.4663 14.8575 82.3503C23.09 95.5032 34.981 108.797 50.0005 114.638C51.0018 115.027 52.017 115.383 53.0459 115.704C64.4852 119.245 72.6161 114.963 82.1569 109.679ZM80.5041 103.675C83.2369 101.876 85.3014 99.6077 86.8119 97.004C82.6505 92.3777 78.9893 87.3538 75.8575 82.3503C74.5673 80.2898 73.316 78.1512 72.1231 75.9483C68.3711 84.8399 58.0034 85.245 47.7556 76.378C36.6242 66.7459 29.8479 49.8104 32.625 38.5576C35.3997 27.3009 46.6774 25.9868 57.81 35.6196C58.9272 36.5862 60.0006 37.6264 61.0249 38.727C60.9808 37.218 60.9947 35.7112 61.0709 34.2096C61.1926 31.8105 61.4732 29.4248 61.9304 27.0646C62.3269 25.0075 62.8693 23.151 63.5436 21.4597C57.4711 15.1731 50.3961 10.0405 42.3955 7.33467C25.242 1.52779 16.0446 15.1041 16.1511 31.0221C16.2045 36.4317 16.9605 41.8739 18.2943 47.2311C20.7887 55.9318 24.5243 64.1029 27.5945 69.6943C27.647 69.7701 27.6977 69.8496 27.7463 69.9331C34.2795 81.1678 42.6413 91.7572 53.6617 99.0275C61.2026 104.053 71.4756 108.245 80.2999 103.771C80.3681 103.736 80.4362 103.704 80.5041 103.675ZM61.9498 57.8721C62.3635 54.9171 60.2577 51.9845 57.3781 49.1767L58.3123 45.3896L56.0315 43.4166L55.1221 47.104C54.5225 46.5852 53.9068 46.0669 53.2948 45.5523L54.2107 41.8409L51.9314 39.8686L50.9967 43.654C50.5005 43.2371 50.0132 42.8268 49.5404 42.418L49.543 42.4059L46.3978 39.6831L45.7911 42.1456C45.7911 42.1456 47.4832 43.5705 47.4476 43.5775C48.3712 44.3769 48.5382 45.1793 48.5104 45.7228L47.4464 50.0372C47.5099 50.0926 47.5924 50.1672 47.6835 50.262L47.6173 50.2047C47.561 50.156 47.5025 50.1053 47.4424 50.054L45.9509 56.0973C45.838 56.3562 45.5515 56.677 44.9058 56.1196C44.9287 56.171 43.2481 54.6848 43.2481 54.6848L42.1157 57.0457L45.0838 59.6136C45.4084 59.8951 45.7292 60.1769 46.0468 60.4558L46.0479 60.4568C46.2701 60.6519 46.4907 60.8457 46.7099 61.037L45.7661 64.8681L48.0442 66.8396L48.9789 63.0496C49.6012 63.6041 50.2052 64.1327 50.7965 64.6437L49.865 68.415L52.1459 70.3881L53.0896 66.5652C56.9787 69.6605 59.9031 71.0062 61.134 67.6549C62.1259 64.9572 61.0846 62.4697 59.0385 60.0583C60.5288 60.5219 61.6513 60.0381 61.9506 57.8729L61.9498 57.8721ZM141.504 103.675C159.161 92.0526 148.917 60.8258 141.63 46.2496C133.771 30.5211 120.765 13.2092 103.395 7.33467C86.242 1.52779 77.0446 15.1041 77.1511 31.0221C77.2045 36.4317 77.9605 41.8739 79.2943 47.2311C81.7887 55.9318 85.5243 64.1029 88.5945 69.6943C88.647 69.7701 88.6977 69.8496 88.7463 69.9331C95.2795 81.1678 103.641 91.7572 114.662 99.0275C122.203 104.053 132.476 108.245 141.3 103.771C141.368 103.736 141.436 103.704 141.504 103.675Z" fill="url(#paint12_linear_317_17978)"/>
<defs>
<linearGradient id="paint0_linear_317_17978" x1="2.92434e-07" y1="58.5" x2="157" y2="58.5" gradientUnits="userSpaceOnUse">
<stop stop-color="#B7E2FF"/>
<stop offset="1" stop-color="#D1EEFC"/>
</linearGradient>
<linearGradient id="paint1_linear_317_17978" x1="2.92434e-07" y1="58.5" x2="157" y2="58.5" gradientUnits="userSpaceOnUse">
<stop stop-color="#B7E2FF"/>
<stop offset="1" stop-color="#D1EEFC"/>
</linearGradient>
<linearGradient id="paint2_linear_317_17978" x1="2.92434e-07" y1="58.5" x2="157" y2="58.5" gradientUnits="userSpaceOnUse">
<stop stop-color="#B7E2FF"/>
<stop offset="1" stop-color="#D1EEFC"/>
</linearGradient>
<linearGradient id="paint3_linear_317_17978" x1="2.92434e-07" y1="58.5" x2="157" y2="58.5" gradientUnits="userSpaceOnUse">
<stop stop-color="#B7E2FF"/>
<stop offset="1" stop-color="#D1EEFC"/>
</linearGradient>
<linearGradient id="paint4_linear_317_17978" x1="2.92434e-07" y1="58.5" x2="157" y2="58.5" gradientUnits="userSpaceOnUse">
<stop stop-color="#B7E2FF"/>
<stop offset="1" stop-color="#D1EEFC"/>
</linearGradient>
<linearGradient id="paint5_linear_317_17978" x1="2.92434e-07" y1="58.5" x2="157" y2="58.5" gradientUnits="userSpaceOnUse">
<stop stop-color="#B7E2FF"/>
<stop offset="1" stop-color="#D1EEFC"/>
</linearGradient>
<linearGradient id="paint6_linear_317_17978" x1="2.92434e-07" y1="58.5" x2="157" y2="58.5" gradientUnits="userSpaceOnUse">
<stop stop-color="#B7E2FF"/>
<stop offset="1" stop-color="#D1EEFC"/>
</linearGradient>
<linearGradient id="paint7_linear_317_17978" x1="2.92434e-07" y1="58.5" x2="157" y2="58.5" gradientUnits="userSpaceOnUse">
<stop stop-color="#B7E2FF"/>
<stop offset="1" stop-color="#D1EEFC"/>
</linearGradient>
<linearGradient id="paint8_linear_317_17978" x1="2.92434e-07" y1="58.5" x2="157" y2="58.5" gradientUnits="userSpaceOnUse">
<stop stop-color="#B7E2FF"/>
<stop offset="1" stop-color="#D1EEFC"/>
</linearGradient>
<linearGradient id="paint9_linear_317_17978" x1="2.92434e-07" y1="58.5" x2="157" y2="58.5" gradientUnits="userSpaceOnUse">
<stop stop-color="#B7E2FF"/>
<stop offset="1" stop-color="#D1EEFC"/>
</linearGradient>
<linearGradient id="paint10_linear_317_17978" x1="2.92434e-07" y1="58.5" x2="157" y2="58.5" gradientUnits="userSpaceOnUse">
<stop stop-color="#B7E2FF"/>
<stop offset="1" stop-color="#D1EEFC"/>
</linearGradient>
<linearGradient id="paint11_linear_317_17978" x1="2.92434e-07" y1="58.5" x2="157" y2="58.5" gradientUnits="userSpaceOnUse">
<stop stop-color="#B7E2FF"/>
<stop offset="1" stop-color="#D1EEFC"/>
</linearGradient>
<linearGradient id="paint12_linear_317_17978" x1="2.92434e-07" y1="58.5" x2="157" y2="58.5" gradientUnits="userSpaceOnUse">
<stop stop-color="#B7E2FF"/>
<stop offset="1" stop-color="#D1EEFC"/>
</linearGradient>
</defs>
</svg>
