<svg width="80" height="80" viewBox="0 0 80 80" fill="none" xmlns="http://www.w3.org/2000/svg">
<path fill-rule="evenodd" clip-rule="evenodd" d="M40.0002 33.2319C35.8261 33.2319 32.6085 35.5931 30.8147 37.2468C30.5475 37.4932 30.1334 37.4935 29.8741 37.2388L27.0586 34.4737C26.7925 34.2124 26.7901 33.7845 27.0627 33.5301C29.2082 31.5277 33.7319 28 40.0002 28C46.2685 28 50.7922 31.5277 52.9377 33.5301C53.2103 33.7845 53.2079 34.2124 52.9418 34.4737L50.1263 37.2388C49.867 37.4935 49.4529 37.4932 49.1857 37.2468C47.3919 35.5931 44.1743 33.2319 40.0002 33.2319ZM19.1714 42.5901C18.8942 42.3407 18.8755 41.9124 19.1301 41.6399L21.8199 38.758C22.0679 38.4923 22.4831 38.4743 22.7533 38.7175L30.6958 45.8676C30.9477 46.0944 31.3295 46.0961 31.5834 45.8717L39.5587 38.8225C39.8109 38.5996 40.1895 38.5996 40.4417 38.8225L48.417 45.8717C48.6709 46.0961 49.0527 46.0944 49.3046 45.8676L57.2471 38.7175C57.5173 38.4743 57.9325 38.4923 58.1805 38.758L60.8703 41.6399C61.1249 41.9124 61.1062 42.3407 60.829 42.5901L49.3374 52.9355C49.0857 53.1621 48.7038 53.1639 48.4499 52.9395L40.4417 45.8612C40.1895 45.6384 39.8109 45.6384 39.5587 45.8612L31.5505 52.9395C31.2966 53.1639 30.9147 53.1621 30.663 52.9355L19.1714 42.5901Z" fill="#278FFC"/>
</svg>
