<svg width="24" height="24" viewBox="0 0 24 24" fill="none" xmlns="http://www.w3.org/2000/svg">
<path d="M6.5 20C6.5 20.5523 6.94772 21 7.5 21C8.05228 21 8.5 20.5523 8.5 20H6.5ZM7.5 4L8.20711 3.29289C7.81658 2.90237 7.18342 2.90237 6.79289 3.29289L7.5 4ZM3.29289 6.79289C2.90237 7.18342 2.90237 7.81658 3.29289 8.20711C3.68342 8.59763 4.31658 8.59763 4.70711 8.20711L3.29289 6.79289ZM10.2929 8.20711C10.6834 8.59763 11.3166 8.59763 11.7071 8.20711C12.0976 7.81658 12.0976 7.18342 11.7071 6.79289L10.2929 8.20711ZM17.5 4C17.5 3.44772 17.0523 3 16.5 3C15.9477 3 15.5 3.44772 15.5 4H17.5ZM16.5 20L15.7929 20.7071C16.1834 21.0976 16.8166 21.0976 17.2071 20.7071L16.5 20ZM13.7071 15.7929C13.3166 15.4024 12.6834 15.4024 12.2929 15.7929C11.9024 16.1834 11.9024 16.8166 12.2929 17.2071L13.7071 15.7929ZM20.7071 17.2071C21.0976 16.8166 21.0976 16.1834 20.7071 15.7929C20.3166 15.4024 19.6834 15.4024 19.2929 15.7929L20.7071 17.2071ZM8.5 20V4H6.5V20H8.5ZM6.79289 3.29289L3.29289 6.79289L4.70711 8.20711L8.20711 4.70711L6.79289 3.29289ZM6.79289 4.70711L10.2929 8.20711L11.7071 6.79289L8.20711 3.29289L6.79289 4.70711ZM15.5 4V20H17.5V4H15.5ZM17.2071 19.2929L13.7071 15.7929L12.2929 17.2071L15.7929 20.7071L17.2071 19.2929ZM17.2071 20.7071L20.7071 17.2071L19.2929 15.7929L15.7929 19.2929L17.2071 20.7071Z" fill="currentColor"/>
</svg>
