<svg width="24" height="24" viewBox="0 0 24 24" fill="none" xmlns="http://www.w3.org/2000/svg">
<path fill-rule="evenodd" clip-rule="evenodd" d="M11.7661 3.90632C12.2791 3.86503 12.7951 3.86503 13.3082 3.90632C13.3568 3.91007 13.4541 3.95132 13.4932 4.08883L13.8835 5.47013C14.082 6.17015 14.6262 6.67892 15.2298 6.95643C15.4648 7.06394 15.6903 7.18519 15.9064 7.31895C16.4695 7.66646 17.2163 7.84771 17.9725 7.65646L19.4606 7.27769C19.6092 7.24019 19.6969 7.29769 19.724 7.3352C20.0197 7.72271 20.2776 8.13648 20.4977 8.57149C20.5166 8.61024 20.5274 8.709 20.4181 8.809L19.3175 9.81654C18.7625 10.3241 18.5586 11.0128 18.6018 11.6366C18.6184 11.8789 18.6184 12.1219 18.6018 12.3641C18.5586 12.9879 18.7625 13.6767 19.3175 14.1842L20.4181 15.1917C20.5261 15.2917 20.5166 15.3905 20.4977 15.4292C20.2796 15.862 20.0207 16.2761 19.724 16.6668C19.6969 16.703 19.6078 16.7593 19.4606 16.723L17.9711 16.3443C17.2163 16.153 16.4695 16.3343 15.9064 16.6818C15.6903 16.8155 15.4648 16.9368 15.2312 17.0443C14.6248 17.3218 14.082 17.8293 13.8835 18.5306L13.4932 19.9119C13.4541 20.0494 13.3568 20.0907 13.3082 20.0944C12.7951 20.1356 12.2791 20.1356 11.7661 20.0944C11.7174 20.0907 11.6202 20.0482 11.5811 19.9119L11.1908 18.5306C10.9923 17.8306 10.4481 17.3218 9.84444 17.0443C9.61076 16.937 9.38477 16.8159 9.16789 16.6818C8.60477 16.3343 7.858 16.153 7.10178 16.3443L5.61364 16.723C5.4651 16.7605 5.37732 16.703 5.35031 16.6655C5.05362 16.2753 4.79469 15.8616 4.57654 15.4292C4.55763 15.3905 4.54683 15.2917 4.65621 15.1917L5.75678 14.1842C6.3118 13.6767 6.51571 12.9879 6.4725 12.3641C6.45586 12.1219 6.45586 11.8789 6.4725 11.6366C6.51571 11.0128 6.3118 10.3241 5.75678 9.81654L4.65621 8.809C4.54818 8.709 4.55763 8.61024 4.57654 8.57149C4.7943 8.13855 5.05324 7.7244 5.35031 7.33395C5.37732 7.29769 5.46645 7.24019 5.61364 7.27769L7.10313 7.65646C7.858 7.84771 8.60477 7.66646 9.16789 7.31895C9.38395 7.18519 9.60947 7.06394 9.84309 6.95643C10.4494 6.67892 10.9923 6.1714 11.1908 5.47013L11.5811 4.08883C11.6202 3.95132 11.7174 3.91007 11.7661 3.90632ZM12.5371 2C12.2184 2 11.9024 2.0125 11.5905 2.0375C10.5872 2.11875 9.84849 2.80628 9.62162 3.61381L9.23001 4.99636C9.20705 5.07886 9.12468 5.19387 8.94507 5.27637C8.6335 5.41911 8.33219 5.58028 8.04301 5.75889C7.87691 5.86139 7.72837 5.87139 7.63789 5.84764L6.14975 5.47013C5.28009 5.24887 4.27 5.49513 3.69203 6.25766C3.32738 6.73787 3.00925 7.24695 2.74135 7.77896C2.31597 8.62274 2.59145 9.55653 3.23154 10.1428L4.33211 11.1503C4.39963 11.2103 4.46445 11.3341 4.45095 11.5178C4.42888 11.8392 4.42888 12.1615 4.45095 12.4829C4.46445 12.6666 4.39963 12.7904 4.33211 12.8504L3.23154 13.8579C2.59145 14.4442 2.31597 15.378 2.74135 16.2218C3.01143 16.7568 3.33012 17.2656 3.69203 17.7443C4.27 18.5056 5.28009 18.7519 6.14975 18.5319L7.63924 18.1531C7.72837 18.1293 7.87691 18.1393 8.04301 18.2418C8.33064 18.4206 8.63178 18.5819 8.94507 18.7244C9.12468 18.8069 9.20705 18.9219 9.23136 19.0044L9.62162 20.3869C9.84984 21.1945 10.5872 21.882 11.5905 21.962C12.2204 22.0127 12.8539 22.0127 13.4838 21.962C14.4871 21.882 15.2258 21.1945 15.4526 20.3869L15.8443 19.0044C15.8672 18.9219 15.9496 18.8069 16.1292 18.7244C16.4408 18.5817 16.7421 18.4205 17.0313 18.2418C17.1974 18.1393 17.3459 18.1293 17.4364 18.1531L18.9245 18.5306C19.7942 18.7519 20.8043 18.5056 21.3822 17.7431C21.7441 17.2656 22.0642 16.7568 22.3329 16.2218C22.7583 15.378 22.4828 14.4442 21.8414 13.8579L20.7422 12.8504C20.6746 12.7904 20.6098 12.6666 20.6233 12.4829C20.6453 12.1615 20.6453 11.8392 20.6233 11.5178C20.6098 11.3341 20.676 11.2103 20.7422 11.1503L21.8414 10.1428C22.4828 9.55653 22.7583 8.62274 22.3329 7.77896C22.065 7.24656 21.7469 6.73707 21.3822 6.25641C20.8043 5.49513 19.7942 5.24887 18.9245 5.46888L17.435 5.84764C17.3459 5.87139 17.1974 5.86139 17.0313 5.75889C16.7421 5.58028 16.4408 5.4191 16.1292 5.27637C15.9496 5.19387 15.8672 5.07886 15.8429 4.99636L15.454 3.61256C15.2244 2.80628 14.4871 2.11875 13.4838 2.03875C13.169 2.01317 12.8531 2.00024 12.5371 2Z" fill="currentColor"/>
<path fill-rule="evenodd" clip-rule="evenodd" d="M16.2774 12.0004C16.2774 12.995 15.8826 13.9488 15.1799 14.6521C14.4771 15.3554 13.5239 15.7505 12.5301 15.7505C11.5362 15.7505 10.5831 15.3554 9.88029 14.6521C9.17752 13.9488 8.78271 12.995 8.78271 12.0004C8.78271 11.0058 9.17752 10.0519 9.88029 9.34863C10.5831 8.64535 11.5362 8.25024 12.5301 8.25024C13.5239 8.25024 14.4771 8.64535 15.1799 9.34863C15.8826 10.0519 16.2774 11.0058 16.2774 12.0004ZM13.855 13.3263C14.2063 12.9746 14.4037 12.4977 14.4037 12.0004C14.4037 11.5031 14.2063 11.0262 13.855 10.6745C13.5036 10.3229 13.027 10.1253 12.5301 10.1253C12.0331 10.1253 11.5566 10.3229 11.2052 10.6745C10.8538 11.0262 10.6564 11.5031 10.6564 12.0004C10.6564 12.4977 10.8538 12.9746 11.2052 13.3263C11.5566 13.6779 12.0331 13.8755 12.5301 13.8755C13.027 13.8755 13.5036 13.6779 13.855 13.3263Z" fill="#0088CC"/>
</svg>
