<svg width="25" height="24" viewBox="0 0 25 24" fill="none" xmlns="http://www.w3.org/2000/svg">
<path fill-rule="evenodd" clip-rule="evenodd" d="M11.2897 3.90632C11.7643 3.86503 12.2416 3.86503 12.7162 3.90632C12.7612 3.91007 12.8511 3.95132 12.8873 4.08883L13.2483 5.47013C13.4319 6.17015 13.9353 6.67892 14.4937 6.95643C14.711 7.06394 14.9196 7.18519 15.1195 7.31895C15.6404 7.66646 16.3311 7.84771 17.0307 7.65646L18.4072 7.27769C18.5446 7.24019 18.6258 7.29769 18.6508 7.3352C18.9243 7.72271 19.1629 8.13648 19.3665 8.57149C19.384 8.61024 19.394 8.709 19.2928 8.809L18.2748 9.81654C17.7614 10.3241 17.5728 11.0128 17.6127 11.6366C17.6281 11.8789 17.6281 12.1219 17.6127 12.3641C17.5728 12.9879 17.7614 13.6767 18.2748 14.1842L19.2928 15.1917C19.3927 15.2917 19.384 15.3905 19.3665 15.4292C19.1648 15.862 18.9253 16.2761 18.6508 16.6668C18.6258 16.703 18.5433 16.7593 18.4072 16.723L17.0294 16.3443C16.3311 16.153 15.6404 16.3343 15.1195 16.6818C14.9196 16.8155 14.711 16.9368 14.4949 17.0443C13.9341 17.3218 13.4319 17.8293 13.2483 18.5306L12.8873 19.9119C12.8511 20.0494 12.7612 20.0907 12.7162 20.0944C12.2416 20.1356 11.7643 20.1356 11.2897 20.0944C11.2447 20.0907 11.1548 20.0482 11.1186 19.9119L10.7576 18.5306C10.574 17.8306 10.0706 17.3218 9.51221 17.0443C9.29605 16.937 9.08702 16.8159 8.8864 16.6818C8.36552 16.3343 7.67476 16.153 6.97525 16.3443L5.59872 16.723C5.46132 16.7605 5.38013 16.703 5.35514 16.6655C5.08071 16.2753 4.8412 15.8616 4.6394 15.4292C4.62191 15.3905 4.61192 15.2917 4.7131 15.1917L5.73113 14.1842C6.24452 13.6767 6.43313 12.9879 6.39316 12.3641C6.37777 12.1219 6.37777 11.8789 6.39316 11.6366C6.43313 11.0128 6.24452 10.3241 5.73113 9.81654L4.7131 8.809C4.61317 8.709 4.62191 8.61024 4.6394 8.57149C4.84083 8.13855 5.08035 7.7244 5.35514 7.33395C5.38013 7.29769 5.46257 7.24019 5.59872 7.27769L6.9765 7.65646C7.67476 7.84771 8.36552 7.66646 8.8864 7.31895C9.08626 7.18519 9.29486 7.06394 9.51096 6.95643C10.0718 6.67892 10.574 6.1714 10.7576 5.47013L11.1186 4.08883C11.1548 3.95132 11.2447 3.91007 11.2897 3.90632ZM12.003 2C11.7082 2 11.4159 2.0125 11.1273 2.0375C10.1992 2.11875 9.51596 2.80628 9.30611 3.61381L8.94386 4.99636C8.92263 5.07886 8.84643 5.19387 8.6803 5.27637C8.3921 5.41911 8.11338 5.58028 7.84589 5.75889C7.69225 5.86139 7.55484 5.87139 7.47115 5.84764L6.09462 5.47013C5.29019 5.24887 4.35585 5.49513 3.82123 6.25766C3.48393 6.73787 3.18966 7.24695 2.94185 7.77896C2.54838 8.62274 2.8032 9.55653 3.39528 10.1428L4.41331 11.1503C4.47577 11.2103 4.53572 11.3341 4.52323 11.5178C4.50282 11.8392 4.50282 12.1615 4.52323 12.4829C4.53572 12.6666 4.47577 12.7904 4.41331 12.8504L3.39528 13.8579C2.8032 14.4442 2.54838 15.378 2.94185 16.2218C3.19167 16.7568 3.48646 17.2656 3.82123 17.7443C4.35585 18.5056 5.29019 18.7519 6.09462 18.5319L7.4724 18.1531C7.55484 18.1293 7.69225 18.1393 7.84589 18.2418C8.11195 18.4206 8.3905 18.5819 8.6803 18.7244C8.84643 18.8069 8.92263 18.9219 8.94511 19.0044L9.30611 20.3869C9.51721 21.1945 10.1992 21.882 11.1273 21.962C11.71 22.0127 12.2959 22.0127 12.8786 21.962C13.8067 21.882 14.4899 21.1945 14.6998 20.3869L15.062 19.0044C15.0833 18.9219 15.1595 18.8069 15.3256 18.7244C15.6138 18.5817 15.8925 18.4205 16.16 18.2418C16.3137 18.1393 16.4511 18.1293 16.5348 18.1531L17.9113 18.5306C18.7157 18.7519 19.6501 18.5056 20.1847 17.7431C20.5194 17.2656 20.8155 16.7568 21.0641 16.2218C21.4575 15.378 21.2027 14.4442 20.6094 13.8579L19.5926 12.8504C19.5301 12.7904 19.4702 12.6666 19.4827 12.4829C19.503 12.1615 19.503 11.8392 19.4827 11.5178C19.4702 11.3341 19.5314 11.2103 19.5926 11.1503L20.6094 10.1428C21.2027 9.55653 21.4575 8.62274 21.0641 7.77896C20.8162 7.24656 20.522 6.73707 20.1847 6.25641C19.6501 5.49513 18.7157 5.24887 17.9113 5.46888L16.5335 5.84764C16.4511 5.87139 16.3137 5.86139 16.16 5.75889C15.8925 5.58028 15.6138 5.4191 15.3256 5.27637C15.1595 5.19387 15.0833 5.07886 15.0608 4.99636L14.701 3.61256C14.4887 2.80628 13.8067 2.11875 12.8786 2.03875C12.5874 2.01317 12.2953 2.00024 12.003 2V2ZM13.8766 12.0004C13.8766 12.4977 13.6792 12.9746 13.3278 13.3262C12.9765 13.6779 12.4999 13.8754 12.003 13.8754C11.506 13.8754 11.0294 13.6779 10.6781 13.3262C10.3267 12.9746 10.1293 12.4977 10.1293 12.0004C10.1293 11.5031 10.3267 11.0261 10.6781 10.6745C11.0294 10.3228 11.506 10.1253 12.003 10.1253C12.4999 10.1253 12.9765 10.3228 13.3278 10.6745C13.6792 11.0261 13.8766 11.5031 13.8766 12.0004ZM15.7503 12.0004C15.7503 12.995 15.3555 13.9488 14.6527 14.6521C13.95 15.3554 12.9968 15.7505 12.003 15.7505C11.0091 15.7505 10.0559 15.3554 9.35317 14.6521C8.65041 13.9488 8.2556 12.995 8.2556 12.0004C8.2556 11.0058 8.65041 10.0519 9.35317 9.34862C10.0559 8.64533 11.0091 8.25023 12.003 8.25023C12.9968 8.25023 13.95 8.64533 14.6527 9.34862C15.3555 10.0519 15.7503 11.0058 15.7503 12.0004Z" fill="currentColor"/>
</svg>
