<svg width="24" height="24" viewBox="0 0 24 24" fill="none" xmlns="http://www.w3.org/2000/svg">
<path d="M12 3C12.6717 3 13.2162 3.54452 13.2162 4.21621V5.5135C13.2162 6.1852 12.6717 6.72971 12 6.72971C11.3283 6.72971 10.7838 6.1852 10.7838 5.5135V4.21621C10.7838 3.54452 11.3283 3 12 3Z" fill="currentColor"/>
<path d="M16.5405 11.9999C16.5405 14.5075 14.5077 16.5404 12 16.5404C9.49232 16.5404 7.45945 14.5075 7.45945 11.9999C7.45945 9.49222 9.49232 7.45936 12 7.45936C14.5077 7.45936 16.5405 9.49222 16.5405 11.9999Z" fill="currentColor"/>
<path d="M13.2162 18.4865C13.2162 17.8148 12.6717 17.2703 12 17.2703C11.3283 17.2703 10.7838 17.8148 10.7838 18.4865V19.7838C10.7838 20.4555 11.3283 21 12 21C12.6717 21 13.2162 20.4555 13.2162 19.7838V18.4865Z" fill="currentColor"/>
<path d="M18.6978 5.95088C19.1728 6.42584 19.1728 7.1959 18.6978 7.67086L17.7805 8.58819C17.3055 9.06315 16.5355 9.06315 16.0605 8.58819C15.5856 8.11323 15.5856 7.34317 16.0605 6.86821L16.9778 5.95088C17.4528 5.47592 18.2229 5.47592 18.6978 5.95088Z" fill="currentColor"/>
<path d="M8.31951 17.4006C8.79447 16.9256 8.79447 16.1555 8.31951 15.6806C7.84455 15.2056 7.07448 15.2056 6.59952 15.6806L5.68219 16.5979C5.20723 17.0729 5.20723 17.8429 5.68219 18.3179C6.15715 18.7928 6.92722 18.7928 7.40218 18.3179L8.31951 17.4006Z" fill="currentColor"/>
<path d="M21 12C21 12.6717 20.4555 13.2162 19.7838 13.2162H18.4865C17.8148 13.2162 17.2703 12.6717 17.2703 12C17.2703 11.3283 17.8148 10.7838 18.4865 10.7838H19.7838C20.4555 10.7838 21 11.3283 21 12Z" fill="currentColor"/>
<path d="M5.51351 13.2162C6.18521 13.2162 6.72973 12.6717 6.72973 12C6.72973 11.3283 6.18521 10.7838 5.51351 10.7838H4.21621C3.54452 10.7838 3 11.3283 3 12C3 12.6717 3.54452 13.2162 4.21621 13.2162H5.51351Z" fill="currentColor"/>
<path d="M18.6978 18.049C18.2229 18.524 17.4528 18.524 16.9778 18.049L16.0605 17.1317C15.5856 16.6568 15.5856 15.8867 16.0605 15.4117C16.5355 14.9368 17.3055 14.9368 17.7805 15.4117L18.6978 16.3291C19.1728 16.804 19.1728 17.5741 18.6978 18.049Z" fill="currentColor"/>
<path d="M6.59952 8.31935C7.07448 8.79431 7.84455 8.79431 8.31951 8.31935C8.79447 7.84439 8.79447 7.07433 8.31951 6.59937L7.40218 5.68205C6.92722 5.20709 6.15715 5.20709 5.68219 5.68205C5.20723 6.15701 5.20723 6.92707 5.68219 7.40203L6.59952 8.31935Z" fill="currentColor"/>
</svg>
