<svg width="24" height="24" viewBox="0 0 24 24" fill="none" xmlns="http://www.w3.org/2000/svg">
<path d="M16.0784 4.5C15.2499 4.5 14.5784 5.17157 14.5784 6H4C3.44772 6 3 6.44772 3 7C3 7.55228 3.44772 8 4 8H14.5784C14.5784 8.82843 15.2499 9.5 16.0784 9.5C16.9068 9.5 17.5784 8.82843 17.5784 8H20C20.5523 8 21 7.55228 21 7C21 6.44772 20.5523 6 20 6H17.5784C17.5784 5.17157 16.9068 4.5 16.0784 4.5Z" fill="currentColor"/>
<path d="M21 12C21 11.4477 20.5523 11 20 11H9.42163C9.42163 10.1716 8.75006 9.5 7.92163 9.5C7.0932 9.5 6.42163 10.1716 6.42163 11H4C3.44772 11 3 11.4477 3 12C3 12.5523 3.44772 13 4 13H6.42163C6.42163 13.8284 7.0932 14.5 7.92163 14.5C8.75006 14.5 9.42163 13.8284 9.42163 13H20C20.5523 13 21 12.5523 21 12Z" fill="currentColor"/>
<path d="M3 17C3 16.4477 3.44772 16 4 16H14.5784C14.5784 15.1716 15.2499 14.5 16.0784 14.5C16.9068 14.5 17.5784 15.1716 17.5784 16H20C20.5523 16 21 16.4477 21 17C21 17.5523 20.5523 18 20 18H17.5784C17.5784 18.8284 16.9068 19.5 16.0784 19.5C15.2499 19.5 14.5784 18.8284 14.5784 18H4C3.44772 18 3 17.5523 3 17Z" fill="currentColor"/>
</svg>
