<svg width="24" height="24" viewBox="0 0 24 24" fill="none" xmlns="http://www.w3.org/2000/svg">
<path fill-rule="evenodd" clip-rule="evenodd" d="M5.19149 2H18.915C19.4005 2 19.8857 2.07122 20.3927 2.3076C21.0004 2.5909 21.3227 3.03745 21.5485 3.36768C21.5661 3.39337 21.5825 3.41985 21.5977 3.44694C21.8632 3.91953 22.0001 4.42977 22.0001 4.97873C22.0001 5.50017 21.876 6.06835 21.5977 6.56357C21.5951 6.56838 21.5924 6.5731 21.5897 6.57773L12.9194 21.4714C12.7282 21.7999 12.3763 22.0014 11.9963 22C11.6162 21.9987 11.2657 21.7946 11.0769 21.4648L2.5658 6.60298C2.56335 6.59896 2.56091 6.59494 2.55846 6.59083C2.36368 6.26995 2.06246 5.77351 2.00976 5.13297C1.96135 4.5439 2.09374 3.95378 2.38972 3.44196C2.6857 2.93014 3.13128 2.521 3.66722 2.27055C4.24187 2.0021 4.82421 2 5.19149 2ZM10.9362 4.12759H5.19149C4.81407 4.12759 4.66919 4.15084 4.56791 4.1982C4.42783 4.26365 4.31021 4.37114 4.23156 4.50711C4.15291 4.64317 4.11734 4.80082 4.13028 4.95863C4.13771 5.04908 4.17458 5.15254 4.39209 5.51126C4.39663 5.51878 4.40109 5.52638 4.40546 5.53407L10.9362 16.9379V4.12759ZM13.0639 4.12759V16.9942L19.7458 5.5159C19.8213 5.37887 19.8724 5.18094 19.8724 4.97873C19.8724 4.81462 19.8384 4.67218 19.7624 4.52537C19.6826 4.41064 19.634 4.3499 19.5934 4.30831C19.5585 4.27274 19.5317 4.25369 19.4937 4.23604C19.3357 4.16237 19.1741 4.12759 18.915 4.12759H13.0639Z" fill="lightblue"/>
</svg>
