<svg width="25" height="24" viewBox="0 0 25 24" fill="none" xmlns="http://www.w3.org/2000/svg">
<path d="M15.5124 13.3913C15.5124 13.1161 15.5936 12.8471 15.7457 12.6183C15.8979 12.3895 16.1141 12.2112 16.3671 12.1059C16.6201 12.0006 16.8985 11.973 17.1671 12.0267C17.4357 12.0804 17.6824 12.2129 17.8761 12.4075C18.0697 12.6021 18.2016 12.85 18.255 13.1199C18.3084 13.3898 18.281 13.6695 18.1762 13.9237C18.0714 14.178 17.894 14.3953 17.6663 14.5481C17.4386 14.701 17.1709 14.7826 16.897 14.7826C16.5298 14.7826 16.1776 14.636 15.9179 14.3751C15.6583 14.1142 15.5124 13.7603 15.5124 13.3913ZM21.7432 9.21739V18.2609C21.7409 18.7214 21.5578 19.1624 21.2337 19.4881C20.9096 19.8138 20.4707 19.9977 20.0124 20H6.16625C5.52432 19.9977 4.90932 19.7405 4.4554 19.2843C4.00148 18.8282 3.74546 18.2103 3.74318 17.5652V6.8C3.74204 6.43344 3.81276 6.07024 3.95132 5.73115C4.08987 5.39206 4.29353 5.0837 4.55068 4.8237C4.80782 4.56369 5.11342 4.35713 5.45001 4.2158C5.78661 4.07447 6.14761 4.00114 6.51241 4H17.9355C18.2109 4 18.475 4.10994 18.6698 4.30563C18.8645 4.50132 18.9739 4.76673 18.9739 5.04348C18.9739 5.32023 18.8645 5.58564 18.6698 5.78133C18.475 5.97702 18.2109 6.08696 17.9355 6.08696H6.51241C6.32455 6.08874 6.14467 6.16353 6.01048 6.29565C5.88791 6.42787 5.81986 6.60191 5.8201 6.78261V6.8C5.83334 6.98605 5.91691 7.15997 6.05369 7.28608C6.19046 7.4122 6.37006 7.48096 6.55568 7.47826H20.0124C20.4707 7.48055 20.9096 7.66451 21.2337 7.99017C21.5578 8.31582 21.7409 8.75685 21.7432 9.21739ZM19.6662 9.56522H6.55568C6.30742 9.56511 6.0602 9.53297 5.8201 9.46957V17.5652C5.8201 17.6575 5.85657 17.7459 5.92149 17.8112C5.9864 17.8764 6.07445 17.913 6.16625 17.913H19.6662V9.56522Z" fill="currentColor"/>
</svg>
