<svg width="1121" height="663" viewBox="0 0 1121 663" fill="none" xmlns="http://www.w3.org/2000/svg">
<g opacity="0.2">
<mask id="mask0_261_17010" style="mask-type:alpha" maskUnits="userSpaceOnUse" x="984" y="132" width="123" height="116">
<path d="M1044.44 133.009L986.39 154.829C984.572 155.513 983.862 157.711 984.938 159.328L1042.99 246.609C1044.18 248.405 1046.82 248.405 1048.01 246.609L1106.06 159.328C1107.14 157.711 1106.43 155.513 1104.61 154.829L1046.56 133.009C1045.88 132.752 1045.12 132.752 1044.44 133.009Z" fill="#C4C4C4"/>
</mask>
<g mask="url(#mask0_261_17010)">
<path d="M1045.5 179.722L1014.17 167.944L998.501 162.055L982.835 156.166L1045.5 132.61L1108.16 156.166L1045.5 179.722Z" fill="#4BAEF7"/>
<path d="M1045.5 173.38L1033.8 169.039L1022.1 164.697L1010.39 160.356L998.69 156.015L1045.5 138.65L1092.31 156.015L1068.91 164.697L1057.2 169.039L1045.5 173.38Z" fill="#9CD4FF"/>
<path d="M1080.61 160.356L1092.31 156.015L1080.61 151.674L1068.91 155.637L1080.61 160.356Z" fill="#D1EBFF"/>
<path d="M998.69 156.015L1010.39 160.356L1022.1 155.637L1010.39 151.674L998.69 156.015Z" fill="#D1EBFF"/>
<path d="M1033.8 169.039L1045.5 173.38L1057.2 169.039L1045.5 164.697L1033.8 169.039Z" fill="#D1EBFF"/>
<path d="M1033.8 142.991L1045.5 147.332L1057.2 142.991L1045.5 138.65L1033.8 142.991Z" fill="#D1EBFF"/>
<path d="M1045.5 161.3L1031.91 156.015L1045.5 150.73V156.543V161.3Z" fill="#4BAEF7"/>
<path d="M1045.5 161.3V156.015V150.73L1059.09 156.015L1045.5 161.3Z" fill="#ABDBFF"/>
<path d="M1045.5 179.721L1108.16 156.165L1045.5 250.389V179.721Z" fill="#6BBCFE"/>
<path d="M1045.5 179.722V250.39L1076.83 203.278L1092.5 162.055L1045.5 179.722Z" fill="#75BFFF"/>
<path d="M1045.5 179.721L1029.83 173.832L1014.17 167.943L998.501 162.054L982.835 156.165L998.501 179.721L1014.17 203.277L1045.5 250.389V179.721Z" fill="#9DD3FE"/>
<path d="M1014.17 203.278L998.501 162.055L1045.5 179.722L1014.17 203.278Z" fill="#87CBFF"/>
<path d="M1045.5 215.055V250.389L1029.83 226.833L1045.5 215.055Z" fill="#B2DCFE"/>
<path d="M1045.5 179.721V250.389L1076.83 203.277L1045.5 179.721Z" fill="#87C8FE"/>
<path d="M1045.5 215.055V250.389L1061.17 226.833L1045.5 215.055Z" fill="#98D0FE"/>
</g>
</g>
<g opacity="0.2" filter="url(#filter0_d_261_17010)">
<mask id="mask1_261_17010" style="mask-type:alpha" maskUnits="userSpaceOnUse" x="453" y="518" width="52" height="51">
<path d="M457.468 524.009C457.584 523.41 457.642 523.11 457.788 522.869C457.918 522.657 458.097 522.478 458.31 522.349C458.552 522.202 458.852 522.145 459.453 522.029L478.636 518.351C478.813 518.317 478.901 518.3 478.99 518.293C479.069 518.287 479.149 518.287 479.228 518.293C479.317 518.3 479.405 518.317 479.582 518.351L498.765 522.029C499.366 522.145 499.666 522.202 499.908 522.349C500.121 522.478 500.3 522.657 500.429 522.869C500.576 523.11 500.634 523.41 500.75 524.009L504.439 543.139C504.473 543.315 504.49 543.403 504.497 543.492C504.503 543.57 504.503 543.65 504.497 543.728C504.49 543.817 504.473 543.905 504.439 544.081L500.75 563.211C500.634 563.81 500.576 564.11 500.429 564.351C500.3 564.563 500.121 564.742 499.908 564.871C499.666 565.018 499.366 565.075 498.765 565.191L479.582 568.869C479.405 568.903 479.317 568.92 479.228 568.927C479.149 568.933 479.069 568.933 478.99 568.927C478.901 568.92 478.813 568.903 478.636 568.869L459.453 565.191C458.852 565.075 458.552 565.018 458.31 564.871C458.097 564.742 457.918 564.563 457.788 564.351C457.642 564.11 457.584 563.81 457.468 563.211L453.779 544.081C453.745 543.905 453.728 543.817 453.721 543.728C453.715 543.65 453.715 543.57 453.721 543.492C453.728 543.403 453.745 543.315 453.779 543.139L457.468 524.009Z" fill="#47A9F1"/>
</mask>
<g mask="url(#mask1_261_17010)">
<path d="M457.789 522.349L479.109 518.26L500.43 522.349L504.53 543.61L500.43 564.871L479.109 568.96L457.789 564.871L453.688 543.61L457.789 522.349Z" fill="#47A9F1"/>
<path d="M486.043 536.697H472.177V550.524H486.043V536.697Z" fill="#D2EAF9"/>
<path d="M479.11 527.478L486.043 536.697H472.177L479.11 527.478Z" fill="#B8DFFF"/>
<path d="M472.177 536.697L486.043 550.524H472.177V536.697Z" fill="#C2E3FF"/>
<path d="M486.042 550.523L472.176 536.696H486.042V550.523Z" fill="#A4D6FE"/>
<path d="M479.11 559.742L486.043 550.524H472.177L479.11 559.742Z" fill="#B8DFFF"/>
<path d="M495.286 543.61L486.042 550.524V536.697L495.286 543.61Z" fill="#B8DFFF"/>
<path d="M495.286 543.611L486.042 536.697L501.295 519.643L495.286 543.611Z" fill="#9AD1FE"/>
<path d="M462.932 543.609L472.176 550.523L456.924 567.577L462.932 543.609Z" fill="#9AD1FE"/>
<path d="M462.932 543.611L472.176 536.697L456.924 519.643L462.932 543.611Z" fill="#74C1FA"/>
<path d="M472.176 536.697L479.109 527.479L456.924 519.643L472.176 536.697Z" fill="#9AD1FE"/>
<path d="M479.109 527.478V518.26L456.924 519.643L479.109 527.478Z" fill="#61B9F9"/>
<path d="M479.109 559.742V568.96L456.924 567.577L479.109 559.742Z" fill="#49AEF8"/>
<path d="M479.109 527.478V518.26L501.295 519.643L479.109 527.478Z" fill="#9AD1FE"/>
<path d="M479.109 559.742V568.96L501.295 567.577L479.109 559.742Z" fill="#80C6FE"/>
<path d="M486.042 550.523L479.109 559.741L501.295 567.577L486.042 550.523Z" fill="#74C1FA"/>
<path d="M486.042 536.697L479.109 527.479L501.295 519.643L486.042 536.697Z" fill="#74C1FA"/>
<path d="M472.176 550.523L479.109 559.741L456.924 567.577L472.176 550.523Z" fill="#74C1FA"/>
<path d="M453.457 543.611H462.932L456.923 519.643L453.457 543.611Z" fill="#279BF1"/>
<path d="M504.762 543.611H495.287L501.296 519.643L504.762 543.611Z" fill="#53B0F4"/>
<path d="M453.457 543.609H462.932L456.923 567.577L453.457 543.609Z" fill="#0F91F0"/>
<path d="M504.762 543.609H495.287L501.296 567.577L504.762 543.609Z" fill="#36A2F2"/>
<path d="M495.286 543.609L486.042 550.523L501.295 567.577L495.286 543.609Z" fill="#9AD1FE"/>
<path d="M462.933 543.61L472.176 550.524V536.697L462.933 543.61Z" fill="#B8DFFF"/>
<g filter="url(#filter1_f_261_17010)">
<path d="M455.101 543.61L458.973 523.53L479.109 519.668L499.246 523.53L503.118 543.61L499.246 563.69L479.109 567.552L458.973 563.69L455.101 543.61Z" stroke="url(#paint0_linear_261_17010)" stroke-width="3.54545"/>
</g>
</g>
</g>
<path d="M82.0898 363.23C97.5626 354.536 97.3215 324.568 81.5557 296.295C65.7868 268.021 40.4607 252.149 24.9879 260.843C9.51511 269.537 9.75623 299.505 25.5251 327.779C41.291 356.052 66.617 371.924 82.0898 363.23Z" fill="#F3FBFE"/>
<path d="M79.9517 360.033C65.862 367.275 49.4144 353.603 40.5395 343.871C26.8028 328.806 16.3549 307.677 16.1511 287.022C16.0446 271.104 25.242 257.528 42.3955 263.334C59.7649 269.209 72.7714 286.521 80.6302 302.249C87.999 316.99 98.3921 348.758 79.8969 360.06C76.5654 362.104 79.6261 367.369 82.988 365.311C100.939 354.334 96.9135 327.615 90.9533 310.993C83.4353 290.013 68.2199 267.449 46.8952 258.556C31.3938 252.1 15.8407 258.001 11.4383 274.799C5.43547 297.81 17.3589 324.434 31.2174 342.247C42.3285 356.527 63.5588 375.248 82.988 365.259C86.5234 363.499 83.4749 358.273 79.9517 360.033Z" fill="url(#paint1_linear_261_17010)"/>
<path d="M25.2895 327.439C9.69991 299.34 9.45851 269.574 24.7523 260.926L15.0091 266.429C-0.287696 275.077 -0.0462042 304.843 15.5464 332.942C31.136 361.039 56.191 376.791 71.4878 368.185L81.2308 362.68C65.922 371.287 40.8821 355.551 25.2895 327.439Z" fill="url(#paint2_linear_261_17010)"/>
<path d="M27.7187 325.92C19.3845 310.842 5.8953 276.318 26.083 264.103C26.7844 263.698 27.296 263.035 27.5043 262.259C27.7126 261.483 27.5962 260.657 27.1857 259.964C26.7753 259.271 26.1015 258.766 25.3143 258.562C24.5271 258.358 23.6879 258.471 22.9864 258.875C12.0733 264.896 3.4818 269.828 0.930382 283.064C-2.72675 301.945 4.91217 322.466 14.8575 338.35C23.6389 352.38 36.5827 366.57 53.0459 371.704C64.9821 375.399 73.3163 370.576 83.4087 364.985C86.8606 363.077 83.8038 357.997 80.2998 359.771C71.4756 364.245 61.2026 360.053 53.6617 355.027C42.6413 347.757 34.2795 337.168 27.7463 325.933C25.7829 322.56 20.4748 325.597 22.4535 328.983C33.0512 347.192 58.6541 377.549 83.4209 364.985L80.3121 359.771C72.033 364.341 65.3099 368.91 55.4074 366.059C40.2123 361.705 28.126 348.053 20.1747 335.286C11.1329 320.853 3.68388 301.919 6.87545 284.65C9.00418 273.147 16.7106 269.317 26.1076 264.143L23.014 258.916C-0.748124 273.241 12.2784 310.586 22.4535 328.983C24.3096 332.397 29.6146 329.346 27.7187 325.92Z" fill="url(#paint3_linear_261_17010)"/>
<path d="M0.930382 283.064C3.4818 269.828 12.0733 264.896 22.9864 258.875C-0.7757 273.2 12.2784 310.586 22.4535 328.983C33.0318 347.159 58.5606 377.438 83.2852 365.054C73.2482 370.615 64.9334 375.384 53.0459 371.704C36.5827 366.57 23.6389 352.38 14.8575 338.35C4.91217 322.466 -2.72675 301.945 0.930382 283.064Z" fill="url(#paint4_linear_261_17010)"/>
<path fill-rule="evenodd" clip-rule="evenodd" d="M43.0199 303.966C43.0509 303.82 43.1837 303.72 43.3321 303.729L50.3042 304.169C50.5385 304.184 50.6658 304.45 50.5305 304.642L40.4123 318.977C40.2241 319.244 39.8058 319.061 39.8738 318.742L43.0199 303.966ZM43.6515 301C43.6133 301.179 43.7433 301.35 43.9261 301.362L50.3095 301.765C50.5498 301.78 50.7091 301.52 50.5867 301.313L45.8324 293.258C45.6933 293.023 45.3376 293.081 45.2806 293.348L43.6515 301ZM46.239 289.227C46.2008 289.162 46.1883 289.086 46.2039 289.012L46.3525 288.314C46.387 288.152 46.5464 288.049 46.7085 288.083L53.113 289.45C53.1869 289.466 53.2521 289.509 53.2956 289.57L55.6998 292.978C55.7585 293.061 55.771 293.169 55.7331 293.263L53.0805 299.867C52.9877 300.098 52.6703 300.122 52.5438 299.908L46.239 289.227ZM57.7601 295.899C57.623 295.704 57.3252 295.739 57.2366 295.96L54.9417 301.673C54.8658 301.862 54.9964 302.07 55.1997 302.084L61.8459 302.539C62.098 302.556 62.2571 302.273 62.1114 302.067L57.7601 295.899ZM64.3404 305.226C64.2883 305.152 64.2058 305.106 64.1157 305.1L55.8657 304.536C55.6231 304.519 55.4626 304.783 55.5891 304.991L63.7802 318.452C63.9126 318.669 64.2385 318.633 64.3205 318.392L67.3007 309.637C67.3317 309.546 67.3172 309.446 67.2618 309.367L64.3404 305.226ZM69.3996 312.397C69.2583 312.197 68.9495 312.242 68.8705 312.474L66.1967 320.329C66.1326 320.517 66.2659 320.714 66.4644 320.725L75.42 321.214C75.4696 321.217 75.5137 321.183 75.5241 321.135V321.135C75.5299 321.107 75.524 321.079 75.5078 321.056L69.3996 312.397ZM74.9271 323.938C74.9655 323.758 74.8339 323.586 74.65 323.576L67.2007 323.169C66.9597 323.156 66.8027 323.418 66.9282 323.625L72.5108 332.799C72.6519 333.031 73.0039 332.971 73.0604 332.705L74.9271 323.938ZM69.5471 333.517C69.8045 333.572 70.0027 333.293 69.8659 333.068L64.9257 324.95C64.7983 324.74 64.4875 324.764 64.3928 324.989L61.6725 331.473C61.5997 331.647 61.7027 331.844 61.8866 331.883L69.5471 333.517ZM58.9003 331.246C59.0413 331.276 59.1837 331.201 59.2395 331.068L62.2632 323.861C62.3546 323.643 62.1699 323.41 61.9369 323.449L41.329 326.904C41.0026 326.959 40.9924 327.425 41.3162 327.494L58.9003 331.246ZM39.6389 324.236C39.4852 324.453 39.6707 324.749 39.9336 324.705L62.0396 320.998C62.2489 320.963 62.3565 320.728 62.2462 320.546L53.2226 305.718C53.1103 305.533 52.8457 305.524 52.7212 305.701L39.6389 324.236Z" fill="url(#paint5_linear_261_17010)"/>
<g opacity="0.4">
<path d="M945.547 86.2484C936.843 81.4012 939.152 60.8213 950.703 40.2821C962.256 19.7428 978.678 7.0218 987.383 11.869C996.087 16.7164 993.778 37.2963 982.225 57.8357C970.674 78.3748 954.252 91.0956 945.547 86.2484Z" fill="#F3FBFE"/>
<path d="M947.067 83.8998C955.042 87.8509 965.95 77.2815 972.005 69.9624C981.379 58.633 989.206 43.3803 990.821 29.193C992.035 18.2632 987.468 9.61258 976.702 14.8366C965.801 20.1226 956.706 32.941 950.83 44.301C945.321 54.9475 936.759 77.4961 947.098 83.9145C948.959 85.0761 946.733 88.9103 944.854 87.7406C934.82 81.5065 939.177 62.8824 943.973 51.0467C950.022 36.1079 960.829 19.5262 974.333 11.8833C984.149 6.33296 993.104 9.25835 994.546 20.4658C996.505 35.8206 987.39 54.9506 977.745 68.1743C970.012 78.7755 955.855 93.1551 944.858 87.7051C942.853 86.7528 945.069 82.947 947.067 83.8998Z" fill="white"/>
<path d="M982.391 57.5852C993.823 37.1787 996.118 16.7375 987.518 11.9091L992.998 14.9809C1001.6 19.8092 999.304 40.2505 987.87 60.657C976.438 81.0627 960.188 93.6816 951.584 88.8818L946.105 85.8087C954.717 90.6077 970.956 78.001 982.391 57.5852Z" fill="white"/>
<path d="M981.036 56.7184C987.151 45.7705 997.781 21.1077 986.487 14.1849C986.093 13.958 985.832 13.54 985.763 13.0223C985.693 12.5048 985.823 11.93 986.12 11.4246C986.418 10.9195 986.861 10.5247 987.35 10.3278C987.84 10.1309 988.338 10.1476 988.732 10.3743C994.879 13.7165 999.705 16.4798 1000.29 25.3776C1001.13 38.0685 995.041 52.7006 987.895 64.3181C981.586 74.5791 972.754 85.2509 962.453 89.9634C954.987 93.3612 950.308 90.6544 944.625 87.5477C942.681 86.4881 944.891 82.7813 946.877 83.7451C951.876 86.1771 958.375 82.5588 963.286 78.5653C970.458 72.7804 976.266 64.9103 981.018 56.7296C982.446 54.2734 985.428 55.9736 983.99 58.4402C976.283 71.7 958.648 94.379 944.618 87.5486L946.869 83.746C951.533 86.2837 955.258 88.9327 961.436 86.2607C970.916 82.1751 979.192 71.9344 984.909 62.6001C991.405 52.0436 997.266 38.5133 996.588 26.8954C996.135 19.1562 991.763 17.0854 986.469 14.2145L988.712 10.4041C1002.01 18.516 991.456 45.0818 983.99 58.4402C982.624 60.9164 979.645 59.2067 981.036 56.7184Z" fill="white"/>
<path d="M1000.29 25.3779C999.705 16.48 994.879 13.7167 988.731 10.3745C1002.03 18.4864 991.455 45.0821 983.99 58.4404C976.297 71.676 958.712 94.2964 944.694 87.586C950.346 90.6767 955.017 93.3476 962.453 89.9636C972.753 85.2511 981.585 74.5794 987.895 64.3184C995.04 52.7009 1001.13 38.0688 1000.29 25.3779Z" fill="url(#paint6_linear_261_17010)"/>
<path fill-rule="evenodd" clip-rule="evenodd" d="M973.563 42.9872C973.551 42.8388 973.437 42.7492 973.297 42.7766L969.551 43.507C969.329 43.5502 969.179 43.8427 969.284 44.0269L973.741 51.8395C973.887 52.0956 974.301 51.8553 974.274 51.5302L973.563 42.9872ZM973.345 40.3675C973.36 40.55 973.219 40.7439 973.046 40.7777L969.784 41.4138C969.556 41.4581 969.436 41.2057 969.575 40.9747L972.487 36.1306C972.644 35.8683 972.972 35.887 972.995 36.1596L973.345 40.3675ZM972.64 32.5223C972.669 32.4733 972.683 32.4179 972.679 32.367V32.367C972.67 32.2546 972.576 32.1939 972.47 32.2316L968.501 33.6372C968.43 33.6624 968.364 33.715 968.316 33.7845L966.784 36.0046C966.72 36.0983 966.696 36.2117 966.72 36.3058L967.682 39.9602C967.742 40.1904 968.038 40.1781 968.181 39.9394L972.64 32.5223ZM964.816 38.8589C964.967 38.6398 965.243 38.641 965.3 38.861L966.059 41.7463C966.109 41.9347 965.962 42.1673 965.77 42.2059L962.579 42.846C962.34 42.894 962.223 42.6172 962.384 42.3844L964.816 38.8589ZM960.253 45.4732C960.31 45.3901 960.393 45.3319 960.478 45.3148L964.986 44.4105C965.216 44.3644 965.336 44.6212 965.194 44.8532L959.962 53.355C959.813 53.5977 959.511 53.5988 959.461 53.3568L958.431 48.302C958.413 48.2108 958.438 48.1045 958.499 48.0161L960.253 45.4732ZM956.456 50.9778C956.612 50.752 956.897 50.762 956.944 50.9951L957.815 55.267C957.853 55.4557 957.706 55.6773 957.518 55.7121L953.14 56.5255C952.903 56.5695 952.789 56.2941 952.948 56.0631L956.456 50.9778ZM952.572 59.0344C952.557 58.851 952.7 58.6562 952.874 58.6239L956.678 57.9171C956.906 57.8748 957.024 58.1303 956.882 58.3605L953.479 63.8909C953.32 64.1498 952.996 64.1287 952.974 63.8581L952.572 59.0344ZM955.521 64.703C955.273 64.7909 955.119 64.5225 955.273 64.2716L958.321 59.3179C958.465 59.0844 958.754 59.072 958.818 59.2967L959.806 62.8207C959.854 62.9931 959.735 63.2106 959.558 63.2733L955.521 64.703ZM962.053 62.3897C961.917 62.4379 961.791 62.3769 961.754 62.2446L960.591 58.0972C960.53 57.8806 960.73 57.6155 960.945 57.6286L971.919 58.3013C972.219 58.3197 972.175 58.8044 971.863 58.9149L962.053 62.3897ZM973.489 55.7206C973.608 55.9298 973.4 56.2597 973.159 56.2449L961.085 55.5049C960.893 55.493 960.818 55.2599 960.943 55.0575L966.989 45.2317C967.116 45.0258 967.365 44.9852 967.462 45.1548L973.489 55.7206Z" fill="url(#paint7_linear_261_17010)"/>
</g>
<path d="M560.509 629.591C569.216 651.912 600.91 652.045 620.543 648.72C646.493 644.304 675.134 631.254 690.403 609.025C695.426 601.706 698.925 592.616 697.017 583.676C695.05 574.455 687.591 568.025 679.152 564.5C667.205 559.509 653.485 559.268 640.801 560.907C625.758 562.904 611.205 567.595 597.846 574.754C579.84 584.342 552.239 605.782 560.509 629.6C561.296 631.862 564.938 630.889 564.142 628.601C557.597 609.749 577.377 592.01 591.392 582.903C612.765 569.032 641.278 560.282 666.829 564.831C676.039 566.495 686.158 570.295 691.106 578.728C695.351 586.005 694.011 594.646 690.321 601.849C679.721 622.564 655.284 635.388 633.811 641.766C619.755 645.924 604.385 648.078 589.819 645.468C579.547 643.621 568.194 638.973 564.142 628.593C563.28 626.372 559.672 627.338 560.509 629.591Z" fill="url(#paint8_linear_261_17010)"/>
<path d="M641.581 641.177C678.039 627.954 701.664 601.1 694.323 581.208L698.977 593.881C706.285 613.774 682.661 640.62 646.236 653.841C609.81 667.065 574.298 661.659 566.981 641.767L562.326 629.093C569.643 648.986 605.123 654.399 641.581 641.177Z" fill="url(#paint9_linear_261_17010)"/>
<path d="M642.082 642.981C658.609 636.884 674.883 627.746 686.402 614.223C694.172 605.074 700.359 592.775 696.172 580.708L692.538 581.705C695.234 589.04 699.394 596.851 698.215 604.867C696.298 617.856 685.607 628.644 675.519 636.194C661.363 646.805 644.361 653.875 626.964 657.26C611.894 660.196 593.937 660.961 580.082 653.36C570.103 647.896 567.751 638.481 564.117 628.593L560.485 629.591C565.123 641.474 577.395 647.131 589.359 649.169C607.006 652.178 625.356 648.918 642.099 642.981C644.361 642.148 643.389 638.555 641.095 639.371C625.841 644.801 609.283 647.995 593.042 645.95C581.791 644.528 568.614 640.011 564.16 628.593C563.322 626.389 559.69 627.313 560.527 629.591C563.783 638.456 566.027 647.795 573.921 653.8C586.193 663.131 603.741 663.972 618.483 662.325C637.726 660.147 656.186 653.515 672.379 642.964C684.225 635.187 696.097 624.46 700.667 610.68C704.25 599.869 699.872 590.721 696.179 580.742C695.343 578.504 691.743 579.443 692.547 581.739C696.531 593.215 689.944 604.826 682.351 613.192C671.308 625.358 656.398 633.758 641.086 639.405C638.826 640.202 639.798 643.821 642.082 642.981Z" fill="url(#paint10_linear_261_17010)"/>
<path d="M641.582 641.168C678.037 627.944 701.661 601.093 694.348 581.194C687.033 561.296 651.551 555.887 615.095 569.11C578.639 582.336 555.016 609.185 562.331 629.083C569.644 648.982 605.128 654.391 641.582 641.168Z" fill="white"/>
<path d="M639.314 634.991C671.444 623.336 692.54 600.419 686.433 583.805C680.325 567.189 649.328 563.17 617.198 574.823C585.068 586.479 563.973 609.395 570.081 626.011C576.187 642.626 607.185 646.645 639.314 634.991Z" fill="#F3FBFE"/>
<path d="M641.647 582.328L653.978 589.023C654.237 589.156 654.514 589.332 654.564 589.605C654.566 589.807 654.515 590.006 654.414 590.18C648.274 602.904 641.828 615.517 635.075 628.019C622.609 623.255 610.128 616.168 598.341 610.263C600.802 604.992 601.17 602.838 603.43 595.653C612.982 590.329 630.973 584.607 641.647 582.345" fill="#D1EEFC"/>
<path d="M641.447 582.671C644.478 584.41 648.379 585.948 651.048 588.193C652.966 589.789 652.89 590.265 652.153 592.633C651.535 594.613 650.178 596.61 649.249 598.455C645.717 605.524 642.15 612.593 638.475 619.571C637.637 621.191 636.892 623.18 635.787 624.634C635.747 625.121 635.535 625.577 635.189 625.924C634.843 626.268 634.384 626.481 633.895 626.522C632.523 625.969 631.16 625.415 629.81 624.859C626.462 623.396 623.112 621.824 619.764 620.194C612.724 616.734 605.809 613.018 598.835 609.5L599.162 610.739C600.726 607.227 602.051 603.615 603.13 599.927C603.967 597.199 604.612 596.043 607.14 594.821C609.669 593.599 612.02 592.626 614.515 591.644C623.464 588.143 632.657 585.706 641.915 583.212C643.055 582.903 642.56 581.298 641.438 581.491C631.333 583.212 621.153 586.87 611.72 590.772C609.041 591.878 604.326 593.092 602.568 595.429C601.322 597.091 601.028 600.56 600.4 602.54C599.615 605.024 598.675 607.461 597.588 609.831C597.47 610.041 597.438 610.286 597.5 610.516C597.56 610.748 597.708 610.947 597.913 611.072C610.129 617.241 622.074 623.978 634.85 628.975C635.057 629.032 635.277 629.019 635.475 628.938C635.674 628.856 635.839 628.712 635.946 628.526C641.656 617.982 647.232 607.362 652.447 596.567C653.419 594.555 656.633 590.547 654.539 588.526C653.343 587.346 650.822 586.588 649.324 585.815L641.881 582.015C641.793 581.977 641.693 581.975 641.601 582.005C641.509 582.037 641.432 582.099 641.383 582.183C641.334 582.265 641.317 582.363 641.336 582.456C641.353 582.552 641.404 582.636 641.479 582.696L641.447 582.671Z" fill="#F3FBFE"/>
<path d="M653.737 590.222C634.916 594.273 617.236 602.373 599.547 609.708C599.019 609.933 599.254 610.805 599.79 610.58C617.495 603.238 635.101 595.046 653.887 590.763C654.239 590.68 654.088 590.147 653.737 590.222Z" fill="#F3FBFE"/>
<path d="M640.399 582.472L636.758 591.296C636.188 592.66 635.996 594.539 634.246 594.696C633.41 594.764 631.048 592.793 630.362 592.393C628.51 591.321 624.401 587.561 622.098 588.534C619.797 589.507 618.223 596.751 617.644 598.798C617.319 599.936 617.411 601.5 616.139 601.85C615.477 602.031 612.73 599.878 612.211 599.571C609.625 598.023 607.079 596.418 604.552 594.771C603.949 594.382 603.389 595.338 603.99 595.729C608.211 598.5 612.518 601.096 616.917 603.513C616.986 603.554 617.067 603.579 617.148 603.584C617.231 603.59 617.312 603.577 617.389 603.547C617.464 603.517 617.532 603.468 617.586 603.408C617.643 603.347 617.682 603.276 617.703 603.197C618.109 601.114 618.635 599.056 619.278 597.033C619.846 595.295 621.087 590.222 622.801 589.667C624.224 589.208 627.315 591.753 628.571 592.468C630.755 593.716 632.94 594.964 635.15 596.135C635.201 596.163 635.258 596.178 635.314 596.182C635.372 596.186 635.431 596.176 635.483 596.154C635.538 596.133 635.585 596.1 635.624 596.058C635.664 596.015 635.694 595.965 635.711 595.911C637.491 591.476 639.283 587.054 641.085 582.646C641.245 582.247 640.591 582.073 640.433 582.472H640.399Z" fill="#F3FBFE"/>
<path d="M645.956 604.842C642.708 601.88 639.452 598.937 636.295 595.885C636.229 595.816 636.143 595.767 636.047 595.747C635.953 595.726 635.853 595.734 635.763 595.769C635.673 595.807 635.596 595.868 635.541 595.947C635.487 596.027 635.459 596.121 635.459 596.218C634.171 606.553 633.631 616.968 633.842 627.379L634.763 627.13C629.8 618.347 623.722 610.389 617.526 602.447C617.473 602.395 617.407 602.356 617.338 602.331C617.266 602.309 617.191 602.301 617.116 602.311C617.043 602.32 616.971 602.346 616.909 602.387C616.847 602.429 616.794 602.483 616.757 602.547C614.74 606.936 613.332 611.577 612.57 616.343C612.461 617.05 613.542 617.342 613.649 616.642C614.127 613.474 614.68 609.898 616.027 606.946C616.069 606.553 616.193 606.173 616.39 605.829C616.588 605.484 616.855 605.187 617.174 604.949C617.761 603.935 618.28 604.118 618.733 605.499C620.406 606.596 621.586 609.15 622.801 610.763C626.946 616.094 630.667 621.739 633.926 627.645C633.985 627.733 634.069 627.8 634.169 627.837C634.267 627.875 634.376 627.88 634.477 627.852C634.581 627.824 634.671 627.764 634.737 627.684C634.802 627.602 634.842 627.501 634.848 627.396C634.848 620.278 635.056 613.192 635.568 606.089C635.694 604.251 635.333 598.189 636.906 597.616C637.81 597.283 644.977 604.451 645.731 605.101C645.881 605.234 646.107 605.009 645.956 604.867V604.842Z" fill="#F3FBFE"/>
<path d="M694.619 607.629C695.616 609.501 696.529 611.447 697.633 613.251C697.642 613.265 697.657 613.277 697.674 613.282C697.691 613.286 697.71 613.284 697.725 613.275C697.742 613.267 697.753 613.252 697.757 613.236C697.762 613.219 697.761 613.2 697.751 613.185C696.83 611.28 695.691 609.45 694.662 607.613L694.619 607.629Z" fill="url(#paint11_linear_261_17010)"/>
<path d="M605.257 655.233C612.983 653.992 620.225 650.284 626.385 645.561C626.889 645.177 626.461 644.363 625.876 644.728C619.127 648.545 612.12 651.631 605.155 655.025C605.014 655.091 605.155 655.281 605.257 655.265V655.233Z" fill="url(#paint12_linear_261_17010)"/>
<defs>
<filter id="filter0_d_261_17010" x="400" y="469" width="159" height="158" filterUnits="userSpaceOnUse" color-interpolation-filters="sRGB">
<feFlood flood-opacity="0" result="BackgroundImageFix"/>
<feColorMatrix in="SourceAlpha" type="matrix" values="0 0 0 0 0 0 0 0 0 0 0 0 0 0 0 0 0 0 127 0" result="hardAlpha"/>
<feOffset dy="4"/>
<feGaussianBlur stdDeviation="20"/>
<feComposite in2="hardAlpha" operator="out"/>
<feColorMatrix type="matrix" values="0 0 0 0 1 0 0 0 0 1 0 0 0 0 1 0 0 0 0.25 0"/>
<feBlend mode="normal" in2="BackgroundImageFix" result="effect1_dropShadow_261_17010"/>
<feBlend mode="normal" in="SourceGraphic" in2="effect1_dropShadow_261_17010" result="shape"/>
</filter>
<filter id="filter1_f_261_17010" x="444.431" y="508.999" width="69.3562" height="69.2213" filterUnits="userSpaceOnUse" color-interpolation-filters="sRGB">
<feFlood flood-opacity="0" result="BackgroundImageFix"/>
<feBlend mode="normal" in="SourceGraphic" in2="BackgroundImageFix" result="shape"/>
<feGaussianBlur stdDeviation="4.43182" result="effect1_foregroundBlur_261_17010"/>
</filter>
<linearGradient id="paint0_linear_261_17010" x1="479.109" y1="518.26" x2="479.109" y2="568.96" gradientUnits="userSpaceOnUse">
<stop stop-color="#8DDBFC"/>
<stop offset="1" stop-color="#47A9F1"/>
</linearGradient>
<linearGradient id="paint1_linear_261_17010" x1="11.1127" y1="326.046" x2="95.9996" y2="326.046" gradientUnits="userSpaceOnUse">
<stop stop-color="#BEEAFF"/>
<stop offset="1" stop-color="#D1EEFC"/>
</linearGradient>
<linearGradient id="paint2_linear_261_17010" x1="4.83265" y1="329.433" x2="81.2309" y2="329.433" gradientUnits="userSpaceOnUse">
<stop stop-color="#BEEAFF"/>
<stop offset="1" stop-color="#D1EEFC"/>
</linearGradient>
<linearGradient id="paint3_linear_261_17010" x1="1.24887" y1="330.049" x2="84.9231" y2="330.049" gradientUnits="userSpaceOnUse">
<stop stop-color="#BEEAFF"/>
<stop offset="1" stop-color="#D1EEFC"/>
</linearGradient>
<linearGradient id="paint4_linear_261_17010" x1="41.7105" y1="258.875" x2="41.7105" y2="373" gradientUnits="userSpaceOnUse">
<stop stop-color="#D1EEFC"/>
<stop offset="1" stop-color="#F3FAFD"/>
</linearGradient>
<linearGradient id="paint5_linear_261_17010" x1="41.7583" y1="312.379" x2="75.8434" y2="319.64" gradientUnits="userSpaceOnUse">
<stop stop-color="#BEEAFF"/>
<stop offset="1" stop-color="#D1EEFC"/>
</linearGradient>
<linearGradient id="paint6_linear_261_17010" x1="996.705" y1="57.7434" x2="948.291" y2="52.6476" gradientUnits="userSpaceOnUse">
<stop stop-color="#BEEAFF"/>
<stop offset="1" stop-color="#D1EEFC"/>
</linearGradient>
<linearGradient id="paint7_linear_261_17010" x1="973.691" y1="48.3508" x2="951.827" y2="50.1846" gradientUnits="userSpaceOnUse">
<stop stop-color="#BEEAFF"/>
<stop offset="1" stop-color="#D1EEFC"/>
</linearGradient>
<linearGradient id="paint8_linear_261_17010" x1="561.037" y1="616.431" x2="697.546" y2="616.431" gradientUnits="userSpaceOnUse">
<stop stop-color="#BEEAFF"/>
<stop offset="1" stop-color="#D1EEFC"/>
</linearGradient>
<linearGradient id="paint9_linear_261_17010" x1="564.355" y1="631.127" x2="700.304" y2="631.127" gradientUnits="userSpaceOnUse">
<stop stop-color="#BEEAFF"/>
<stop offset="1" stop-color="#D1EEFC"/>
</linearGradient>
<linearGradient id="paint10_linear_261_17010" x1="562.485" y1="631.674" x2="701.999" y2="631.674" gradientUnits="userSpaceOnUse">
<stop stop-color="#BEEAFF"/>
<stop offset="1" stop-color="#D1EEFC"/>
</linearGradient>
<linearGradient id="paint11_linear_261_17010" x1="694.665" y1="611.157" x2="697.76" y2="611.157" gradientUnits="userSpaceOnUse">
<stop stop-color="#BEEAFF"/>
<stop offset="1" stop-color="#D1EEFC"/>
</linearGradient>
<linearGradient id="paint12_linear_261_17010" x1="605.412" y1="651.28" x2="626.608" y2="651.28" gradientUnits="userSpaceOnUse">
<stop stop-color="#BEEAFF"/>
<stop offset="1" stop-color="#D1EEFC"/>
</linearGradient>
</defs>
</svg>
